<mxfile host="app.diagrams.net" modified="2020-03-27T00:49:07.472Z" agent="Mozilla/5.0 (Windows NT 10.0; Win64; x64) AppleWebKit/537.36 (KHTML, like Gecko) Chrome/80.0.3987.149 Safari/537.36" etag="WsRym-c0FY1-3itVwTQ3" version="12.9.3" type="github">
  <diagram id="hWwkiKWxggNQL9p0ts0W" name="Page-1">
    <mxGraphModel dx="2895" dy="1510" grid="1" gridSize="10" guides="1" tooltips="1" connect="1" arrows="1" fold="1" page="1" pageScale="1" pageWidth="827" pageHeight="1169" math="0" shadow="0">
      <root>
        <mxCell id="0" />
        <mxCell id="1" parent="0" />
        <mxCell id="y-TyGeWh9Q0BCXoDB0KB-29" value="Vidix App" style="shape=rect;html=1;verticalAlign=top;fontStyle=1;whiteSpace=wrap;align=center;fontSize=14;" parent="1" vertex="1">
          <mxGeometry x="160" y="40" width="920" height="2720" as="geometry" />
        </mxCell>
        <mxCell id="y-TyGeWh9Q0BCXoDB0KB-88" value="" style="group" parent="1" vertex="1" connectable="0">
          <mxGeometry x="210" y="80" width="830" height="440" as="geometry" />
        </mxCell>
        <mxCell id="y-TyGeWh9Q0BCXoDB0KB-30" value="" style="shape=folder;fontStyle=1;spacingTop=10;tabWidth=142;tabHeight=22;tabPosition=left;html=1;verticalAlign=top;align=left;strokeColor=#B9E0A5;strokeWidth=3;" parent="y-TyGeWh9Q0BCXoDB0KB-88" vertex="1">
          <mxGeometry width="830" height="440" as="geometry" />
        </mxCell>
        <mxCell id="y-TyGeWh9Q0BCXoDB0KB-86" value="1 - Authentication" style="text;html=1;strokeColor=none;fillColor=none;align=left;verticalAlign=middle;whiteSpace=wrap;rounded=0;fontSize=14;" parent="y-TyGeWh9Q0BCXoDB0KB-88" vertex="1">
          <mxGeometry x="16.599999999999998" width="215.79999999999998" height="20" as="geometry" />
        </mxCell>
        <mxCell id="y-TyGeWh9Q0BCXoDB0KB-14" value="Authenticate with Password" style="ellipse;whiteSpace=wrap;html=1;" parent="y-TyGeWh9Q0BCXoDB0KB-88" vertex="1">
          <mxGeometry x="210" y="370" width="140" height="50" as="geometry" />
        </mxCell>
        <mxCell id="y-TyGeWh9Q0BCXoDB0KB-1" value="&lt;font color=&quot;#000000&quot;&gt;End User&lt;/font&gt;" style="shape=umlActor;html=1;verticalLabelPosition=bottom;verticalAlign=top;align=center;strokeColor=#005700;fillColor=#008a00;fontColor=#ffffff;" parent="1" vertex="1">
          <mxGeometry x="25" y="511" width="30" height="60" as="geometry" />
        </mxCell>
        <mxCell id="y-TyGeWh9Q0BCXoDB0KB-6" value="1.2 - Authenticate in App" style="ellipse;whiteSpace=wrap;html=1;fillColor=#fff2cc;strokeColor=#d6b656;" parent="1" vertex="1">
          <mxGeometry x="330" y="370" width="140" height="50" as="geometry" />
        </mxCell>
        <mxCell id="y-TyGeWh9Q0BCXoDB0KB-11" value="1.1 - Register in App" style="ellipse;whiteSpace=wrap;html=1;fillColor=#fff2cc;strokeColor=#d6b656;" parent="1" vertex="1">
          <mxGeometry x="250" y="110" width="140" height="50" as="geometry" />
        </mxCell>
        <mxCell id="y-TyGeWh9Q0BCXoDB0KB-12" value="1.3 - Reset Password" style="ellipse;whiteSpace=wrap;html=1;fillColor=#fff2cc;strokeColor=#d6b656;" parent="1" vertex="1">
          <mxGeometry x="250" y="300" width="140" height="45" as="geometry" />
        </mxCell>
        <mxCell id="y-TyGeWh9Q0BCXoDB0KB-13" value="&amp;lt;&amp;lt;extend&amp;gt;&amp;gt;" style="edgeStyle=none;html=1;startArrow=open;endArrow=none;startSize=12;verticalAlign=bottom;dashed=1;labelBackgroundColor=none;exitX=0;exitY=0;exitDx=0;exitDy=0;entryX=0.5;entryY=1;entryDx=0;entryDy=0;" parent="1" source="y-TyGeWh9Q0BCXoDB0KB-6" target="y-TyGeWh9Q0BCXoDB0KB-12" edge="1">
          <mxGeometry x="-0.1531" y="-1" width="160" relative="1" as="geometry">
            <mxPoint x="415" y="216" as="sourcePoint" />
            <mxPoint x="575" y="216" as="targetPoint" />
            <mxPoint as="offset" />
          </mxGeometry>
        </mxCell>
        <mxCell id="y-TyGeWh9Q0BCXoDB0KB-15" value="Authenticate with&amp;nbsp; Social Account (SSO)" style="ellipse;whiteSpace=wrap;html=1;" parent="1" vertex="1">
          <mxGeometry x="245" y="450" width="140" height="50" as="geometry" />
        </mxCell>
        <mxCell id="y-TyGeWh9Q0BCXoDB0KB-17" value="" style="edgeStyle=none;html=1;endArrow=block;endFill=0;endSize=12;verticalAlign=bottom;exitX=0.5;exitY=0;exitDx=0;exitDy=0;entryX=1;entryY=1;entryDx=0;entryDy=0;" parent="1" source="y-TyGeWh9Q0BCXoDB0KB-14" target="y-TyGeWh9Q0BCXoDB0KB-6" edge="1">
          <mxGeometry width="160" relative="1" as="geometry">
            <mxPoint x="345" y="356" as="sourcePoint" />
            <mxPoint x="505" y="356" as="targetPoint" />
          </mxGeometry>
        </mxCell>
        <mxCell id="y-TyGeWh9Q0BCXoDB0KB-18" value="" style="edgeStyle=none;html=1;endArrow=block;endFill=0;endSize=12;verticalAlign=bottom;entryX=0;entryY=1;entryDx=0;entryDy=0;exitX=0.5;exitY=0;exitDx=0;exitDy=0;" parent="1" source="y-TyGeWh9Q0BCXoDB0KB-15" target="y-TyGeWh9Q0BCXoDB0KB-6" edge="1">
          <mxGeometry width="160" relative="1" as="geometry">
            <mxPoint x="105" y="466" as="sourcePoint" />
            <mxPoint x="265" y="466" as="targetPoint" />
          </mxGeometry>
        </mxCell>
        <mxCell id="y-TyGeWh9Q0BCXoDB0KB-19" value="" style="edgeStyle=orthogonalEdgeStyle;html=1;endArrow=none;verticalAlign=bottom;exitX=0.5;exitY=0.5;exitDx=0;exitDy=0;exitPerimeter=0;entryX=0;entryY=0.5;entryDx=0;entryDy=0;curved=1;fillColor=#008a00;strokeColor=#005700;" parent="1" source="y-TyGeWh9Q0BCXoDB0KB-1" target="y-TyGeWh9Q0BCXoDB0KB-11" edge="1">
          <mxGeometry width="160" relative="1" as="geometry">
            <mxPoint x="95" y="176" as="sourcePoint" />
            <mxPoint x="255" y="176" as="targetPoint" />
            <Array as="points">
              <mxPoint x="60" y="541" />
              <mxPoint x="60" y="141" />
            </Array>
          </mxGeometry>
        </mxCell>
        <mxCell id="y-TyGeWh9Q0BCXoDB0KB-20" value="" style="edgeStyle=orthogonalEdgeStyle;html=1;endArrow=none;verticalAlign=bottom;exitX=0.5;exitY=0.5;exitDx=0;exitDy=0;exitPerimeter=0;entryX=0;entryY=0.5;entryDx=0;entryDy=0;curved=1;fillColor=#008a00;strokeColor=#005700;" parent="1" source="y-TyGeWh9Q0BCXoDB0KB-1" target="y-TyGeWh9Q0BCXoDB0KB-12" edge="1">
          <mxGeometry width="160" relative="1" as="geometry">
            <mxPoint x="155" y="316" as="sourcePoint" />
            <mxPoint x="270" y="211" as="targetPoint" />
            <Array as="points">
              <mxPoint x="100" y="541" />
              <mxPoint x="100" y="323" />
            </Array>
          </mxGeometry>
        </mxCell>
        <mxCell id="y-TyGeWh9Q0BCXoDB0KB-21" value="" style="edgeStyle=orthogonalEdgeStyle;html=1;endArrow=none;verticalAlign=bottom;entryX=0;entryY=0.5;entryDx=0;entryDy=0;exitX=0.5;exitY=0.5;exitDx=0;exitDy=0;exitPerimeter=0;curved=1;fillColor=#008a00;strokeColor=#005700;" parent="1" source="y-TyGeWh9Q0BCXoDB0KB-1" target="y-TyGeWh9Q0BCXoDB0KB-6" edge="1">
          <mxGeometry width="160" relative="1" as="geometry">
            <mxPoint x="35" y="156" as="sourcePoint" />
            <mxPoint x="195" y="156" as="targetPoint" />
          </mxGeometry>
        </mxCell>
        <mxCell id="y-TyGeWh9Q0BCXoDB0KB-26" value="1.4 - Log Off from App" style="ellipse;whiteSpace=wrap;html=1;fillColor=#fff2cc;strokeColor=#d6b656;" parent="1" vertex="1">
          <mxGeometry x="400" y="300" width="140" height="50" as="geometry" />
        </mxCell>
        <mxCell id="y-TyGeWh9Q0BCXoDB0KB-31" value="&lt;font color=&quot;#000000&quot;&gt;&amp;lt;&amp;lt;service&amp;gt;&amp;gt;&lt;br&gt;Authentication&lt;/font&gt;" style="shape=umlActor;html=1;verticalLabelPosition=bottom;verticalAlign=top;align=center;fillColor=#a20025;strokeColor=#6F0000;fontColor=#ffffff;" parent="1" vertex="1">
          <mxGeometry x="1148" y="260" width="30" height="60" as="geometry" />
        </mxCell>
        <mxCell id="y-TyGeWh9Q0BCXoDB0KB-32" value="" style="edgeStyle=orthogonalEdgeStyle;html=1;endArrow=none;verticalAlign=bottom;entryX=0.5;entryY=0.5;entryDx=0;entryDy=0;entryPerimeter=0;exitX=1;exitY=0.5;exitDx=0;exitDy=0;curved=1;fillColor=#a20025;strokeColor=#6F0000;" parent="1" source="y-TyGeWh9Q0BCXoDB0KB-11" target="y-TyGeWh9Q0BCXoDB0KB-31" edge="1">
          <mxGeometry width="160" relative="1" as="geometry">
            <mxPoint x="580" y="150" as="sourcePoint" />
            <mxPoint x="740" y="150" as="targetPoint" />
            <Array as="points">
              <mxPoint x="730" y="135" />
              <mxPoint x="730" y="290" />
            </Array>
          </mxGeometry>
        </mxCell>
        <mxCell id="y-TyGeWh9Q0BCXoDB0KB-33" value="" style="edgeStyle=orthogonalEdgeStyle;html=1;endArrow=none;verticalAlign=bottom;entryX=0.5;entryY=0.5;entryDx=0;entryDy=0;entryPerimeter=0;exitX=1;exitY=0.5;exitDx=0;exitDy=0;curved=1;fillColor=#a20025;strokeColor=#6F0000;" parent="1" source="y-TyGeWh9Q0BCXoDB0KB-12" target="y-TyGeWh9Q0BCXoDB0KB-31" edge="1">
          <mxGeometry width="160" relative="1" as="geometry">
            <mxPoint x="630" y="150" as="sourcePoint" />
            <mxPoint x="790" y="150" as="targetPoint" />
            <Array as="points">
              <mxPoint x="390" y="280" />
              <mxPoint x="879" y="280" />
            </Array>
          </mxGeometry>
        </mxCell>
        <mxCell id="y-TyGeWh9Q0BCXoDB0KB-35" value="" style="edgeStyle=orthogonalEdgeStyle;html=1;endArrow=none;verticalAlign=bottom;entryX=0.5;entryY=0.5;entryDx=0;entryDy=0;entryPerimeter=0;exitX=1;exitY=0.5;exitDx=0;exitDy=0;curved=1;fillColor=#a20025;strokeColor=#6F0000;" parent="1" source="y-TyGeWh9Q0BCXoDB0KB-6" target="y-TyGeWh9Q0BCXoDB0KB-31" edge="1">
          <mxGeometry width="160" relative="1" as="geometry">
            <mxPoint x="640" y="420" as="sourcePoint" />
            <mxPoint x="800" y="420" as="targetPoint" />
            <Array as="points">
              <mxPoint x="720" y="355" />
              <mxPoint x="720" y="290" />
            </Array>
          </mxGeometry>
        </mxCell>
        <mxCell id="y-TyGeWh9Q0BCXoDB0KB-56" value="&amp;lt;&amp;lt;extend&amp;gt;&amp;gt;" style="edgeStyle=none;html=1;startArrow=open;endArrow=none;startSize=12;verticalAlign=bottom;dashed=1;labelBackgroundColor=none;fontSize=11;entryX=0.5;entryY=1;entryDx=0;entryDy=0;exitX=1;exitY=0;exitDx=0;exitDy=0;" parent="1" source="y-TyGeWh9Q0BCXoDB0KB-6" target="y-TyGeWh9Q0BCXoDB0KB-26" edge="1">
          <mxGeometry x="0.0609" y="-12" width="160" relative="1" as="geometry">
            <mxPoint x="710" y="434.41" as="sourcePoint" />
            <mxPoint x="870" y="434.41" as="targetPoint" />
            <mxPoint as="offset" />
          </mxGeometry>
        </mxCell>
        <mxCell id="y-TyGeWh9Q0BCXoDB0KB-57" value="Register with Email" style="ellipse;whiteSpace=wrap;html=1;" parent="1" vertex="1">
          <mxGeometry x="450" y="146" width="140" height="50" as="geometry" />
        </mxCell>
        <mxCell id="y-TyGeWh9Q0BCXoDB0KB-58" value="Register with Mobile Number" style="ellipse;whiteSpace=wrap;html=1;" parent="1" vertex="1">
          <mxGeometry x="460" y="210" width="140" height="50" as="geometry" />
        </mxCell>
        <mxCell id="y-TyGeWh9Q0BCXoDB0KB-59" value="&amp;lt;&amp;lt;extend&amp;gt;&amp;gt;" style="edgeStyle=none;html=1;startArrow=open;endArrow=none;startSize=12;verticalAlign=bottom;dashed=1;labelBackgroundColor=none;fontSize=11;entryX=0;entryY=0;entryDx=0;entryDy=0;exitX=0;exitY=1;exitDx=0;exitDy=0;" parent="1" source="y-TyGeWh9Q0BCXoDB0KB-11" target="y-TyGeWh9Q0BCXoDB0KB-12" edge="1">
          <mxGeometry x="0.6547" width="160" relative="1" as="geometry">
            <mxPoint x="490" y="250" as="sourcePoint" />
            <mxPoint x="650" y="250" as="targetPoint" />
            <mxPoint as="offset" />
          </mxGeometry>
        </mxCell>
        <mxCell id="y-TyGeWh9Q0BCXoDB0KB-61" value="" style="edgeStyle=none;html=1;endArrow=block;endFill=0;endSize=12;verticalAlign=bottom;fontSize=11;entryX=1;entryY=0.5;entryDx=0;entryDy=0;exitX=0;exitY=0.5;exitDx=0;exitDy=0;" parent="1" source="y-TyGeWh9Q0BCXoDB0KB-57" target="y-TyGeWh9Q0BCXoDB0KB-11" edge="1">
          <mxGeometry width="160" relative="1" as="geometry">
            <mxPoint x="660" y="-20" as="sourcePoint" />
            <mxPoint x="408.5814396834028" y="207.3523689262464" as="targetPoint" />
          </mxGeometry>
        </mxCell>
        <mxCell id="y-TyGeWh9Q0BCXoDB0KB-62" value="" style="edgeStyle=none;html=1;endArrow=block;endFill=0;endSize=12;verticalAlign=bottom;fontSize=11;exitX=0;exitY=0.5;exitDx=0;exitDy=0;entryX=1;entryY=1;entryDx=0;entryDy=0;" parent="1" source="y-TyGeWh9Q0BCXoDB0KB-58" target="y-TyGeWh9Q0BCXoDB0KB-11" edge="1">
          <mxGeometry width="160" relative="1" as="geometry">
            <mxPoint x="760" y="90" as="sourcePoint" />
            <mxPoint x="370" y="150" as="targetPoint" />
          </mxGeometry>
        </mxCell>
        <mxCell id="y-TyGeWh9Q0BCXoDB0KB-63" value="Register with Social Account" style="ellipse;whiteSpace=wrap;html=1;" parent="1" vertex="1">
          <mxGeometry x="289" y="200" width="140" height="50" as="geometry" />
        </mxCell>
        <mxCell id="y-TyGeWh9Q0BCXoDB0KB-70" value="" style="edgeStyle=none;html=1;endArrow=block;endFill=0;endSize=12;verticalAlign=bottom;fontSize=11;exitX=0.5;exitY=0;exitDx=0;exitDy=0;entryX=0.5;entryY=1;entryDx=0;entryDy=0;" parent="1" source="y-TyGeWh9Q0BCXoDB0KB-63" target="y-TyGeWh9Q0BCXoDB0KB-11" edge="1">
          <mxGeometry width="160" relative="1" as="geometry">
            <mxPoint x="250" y="-20" as="sourcePoint" />
            <mxPoint x="410" y="-20" as="targetPoint" />
          </mxGeometry>
        </mxCell>
        <mxCell id="y-TyGeWh9Q0BCXoDB0KB-73" value="Identify User&lt;br&gt;Subscription" style="ellipse;whiteSpace=wrap;html=1;" parent="1" vertex="1">
          <mxGeometry x="540" y="380" width="140" height="50" as="geometry" />
        </mxCell>
        <mxCell id="y-TyGeWh9Q0BCXoDB0KB-74" value="" style="edgeStyle=orthogonalEdgeStyle;html=1;endArrow=none;verticalAlign=bottom;fontSize=11;entryX=0.5;entryY=0.5;entryDx=0;entryDy=0;entryPerimeter=0;exitX=1;exitY=0.5;exitDx=0;exitDy=0;curved=1;fillColor=#a20025;strokeColor=#6F0000;" parent="1" source="y-TyGeWh9Q0BCXoDB0KB-73" target="y-TyGeWh9Q0BCXoDB0KB-31" edge="1">
          <mxGeometry width="160" relative="1" as="geometry">
            <mxPoint x="780" y="410" as="sourcePoint" />
            <mxPoint x="940" y="410" as="targetPoint" />
            <Array as="points">
              <mxPoint x="810" y="405" />
              <mxPoint x="810" y="290" />
            </Array>
          </mxGeometry>
        </mxCell>
        <mxCell id="y-TyGeWh9Q0BCXoDB0KB-75" value="&amp;lt;&amp;lt;include&amp;gt;&amp;gt;" style="edgeStyle=none;html=1;endArrow=open;verticalAlign=bottom;dashed=1;labelBackgroundColor=none;fontSize=11;exitX=0;exitY=0.5;exitDx=0;exitDy=0;entryX=1;entryY=0.5;entryDx=0;entryDy=0;" parent="1" source="y-TyGeWh9Q0BCXoDB0KB-73" target="y-TyGeWh9Q0BCXoDB0KB-6" edge="1">
          <mxGeometry width="160" relative="1" as="geometry">
            <mxPoint x="870" y="470" as="sourcePoint" />
            <mxPoint x="1030" y="470" as="targetPoint" />
          </mxGeometry>
        </mxCell>
        <mxCell id="y-TyGeWh9Q0BCXoDB0KB-76" value="" style="edgeStyle=orthogonalEdgeStyle;html=1;endArrow=none;verticalAlign=bottom;fontSize=11;entryX=0.5;entryY=0.5;entryDx=0;entryDy=0;entryPerimeter=0;exitX=1;exitY=0.5;exitDx=0;exitDy=0;curved=1;fillColor=#a20025;strokeColor=#6F0000;" parent="1" source="y-TyGeWh9Q0BCXoDB0KB-26" target="y-TyGeWh9Q0BCXoDB0KB-31" edge="1">
          <mxGeometry width="160" relative="1" as="geometry">
            <mxPoint x="840" y="460" as="sourcePoint" />
            <mxPoint x="1000" y="460" as="targetPoint" />
          </mxGeometry>
        </mxCell>
        <mxCell id="y-TyGeWh9Q0BCXoDB0KB-77" value="" style="edgeStyle=orthogonalEdgeStyle;html=1;endArrow=none;verticalAlign=bottom;fontSize=11;entryX=0;entryY=0;entryDx=0;entryDy=0;exitX=0.5;exitY=0.5;exitDx=0;exitDy=0;exitPerimeter=0;curved=1;fillColor=#008a00;strokeColor=#005700;" parent="1" source="y-TyGeWh9Q0BCXoDB0KB-1" target="y-TyGeWh9Q0BCXoDB0KB-26" edge="1">
          <mxGeometry width="160" relative="1" as="geometry">
            <mxPoint y="-60" as="sourcePoint" />
            <mxPoint x="160" y="-60" as="targetPoint" />
            <Array as="points">
              <mxPoint x="80" y="541" />
              <mxPoint x="80" y="250" />
              <mxPoint x="420" y="250" />
            </Array>
          </mxGeometry>
        </mxCell>
        <mxCell id="y-TyGeWh9Q0BCXoDB0KB-160" value="" style="group" parent="1" vertex="1" connectable="0">
          <mxGeometry x="210" y="570" width="830" height="950" as="geometry" />
        </mxCell>
        <mxCell id="y-TyGeWh9Q0BCXoDB0KB-161" value="" style="shape=folder;fontStyle=1;spacingTop=10;tabWidth=142;tabHeight=22;tabPosition=left;html=1;verticalAlign=top;align=left;strokeColor=#B9E0A5;strokeWidth=3;" parent="y-TyGeWh9Q0BCXoDB0KB-160" vertex="1">
          <mxGeometry width="830" height="949.9999999999999" as="geometry" />
        </mxCell>
        <mxCell id="y-TyGeWh9Q0BCXoDB0KB-162" value="2 - Navigation" style="text;html=1;strokeColor=none;fillColor=none;align=left;verticalAlign=middle;whiteSpace=wrap;rounded=0;fontSize=14;" parent="y-TyGeWh9Q0BCXoDB0KB-160" vertex="1">
          <mxGeometry x="16.6" width="123.4" height="20" as="geometry" />
        </mxCell>
        <mxCell id="y-TyGeWh9Q0BCXoDB0KB-9" value="2.7 - Manage Favorites" style="ellipse;whiteSpace=wrap;html=1;fillColor=#fff2cc;strokeColor=#d6b656;" parent="y-TyGeWh9Q0BCXoDB0KB-160" vertex="1">
          <mxGeometry x="180" y="734.55" width="140" height="49" as="geometry" />
        </mxCell>
        <mxCell id="y-TyGeWh9Q0BCXoDB0KB-104" value="Analyze Content Browsing" style="ellipse;whiteSpace=wrap;html=1;fillColor=#ffffff;strokeColor=#000000;" parent="y-TyGeWh9Q0BCXoDB0KB-160" vertex="1">
          <mxGeometry x="564" y="610" width="140" height="50" as="geometry" />
        </mxCell>
        <mxCell id="y-TyGeWh9Q0BCXoDB0KB-123" value="2.8 - Browse Content Details" style="ellipse;whiteSpace=wrap;html=1;fillColor=#fff2cc;strokeColor=#d6b656;" parent="y-TyGeWh9Q0BCXoDB0KB-160" vertex="1">
          <mxGeometry x="320" y="644.55" width="140" height="50" as="geometry" />
        </mxCell>
        <mxCell id="y-TyGeWh9Q0BCXoDB0KB-124" value="2.6 - Browse Favorites List" style="ellipse;whiteSpace=wrap;html=1;fillColor=#fff2cc;strokeColor=#d6b656;" parent="y-TyGeWh9Q0BCXoDB0KB-160" vertex="1">
          <mxGeometry x="131" y="644.55" width="140" height="49" as="geometry" />
        </mxCell>
        <mxCell id="y-TyGeWh9Q0BCXoDB0KB-125" value="Add to Favorites" style="ellipse;whiteSpace=wrap;html=1;" parent="y-TyGeWh9Q0BCXoDB0KB-160" vertex="1">
          <mxGeometry x="90" y="794.55" width="140" height="49" as="geometry" />
        </mxCell>
        <mxCell id="y-TyGeWh9Q0BCXoDB0KB-126" value="Remove from Favorites" style="ellipse;whiteSpace=wrap;html=1;" parent="y-TyGeWh9Q0BCXoDB0KB-160" vertex="1">
          <mxGeometry x="90" y="846.55" width="140" height="49" as="geometry" />
        </mxCell>
        <mxCell id="y-TyGeWh9Q0BCXoDB0KB-127" value="Browse Content Description" style="ellipse;whiteSpace=wrap;html=1;" parent="y-TyGeWh9Q0BCXoDB0KB-160" vertex="1">
          <mxGeometry x="402" y="709.55" width="140" height="49" as="geometry" />
        </mxCell>
        <mxCell id="y-TyGeWh9Q0BCXoDB0KB-128" value="Browse Content Rating" style="ellipse;whiteSpace=wrap;html=1;" parent="y-TyGeWh9Q0BCXoDB0KB-160" vertex="1">
          <mxGeometry x="402" y="760.55" width="140" height="49" as="geometry" />
        </mxCell>
        <mxCell id="y-TyGeWh9Q0BCXoDB0KB-129" value="Browse Content Comments" style="ellipse;whiteSpace=wrap;html=1;" parent="y-TyGeWh9Q0BCXoDB0KB-160" vertex="1">
          <mxGeometry x="402" y="811.55" width="140" height="49" as="geometry" />
        </mxCell>
        <mxCell id="y-TyGeWh9Q0BCXoDB0KB-169" value="&amp;lt;&amp;lt;include&amp;gt;&amp;gt;" style="edgeStyle=none;html=1;endArrow=open;verticalAlign=bottom;dashed=1;labelBackgroundColor=none;fontSize=11;entryX=0.5;entryY=1;entryDx=0;entryDy=0;exitX=0;exitY=0.5;exitDx=0;exitDy=0;" parent="y-TyGeWh9Q0BCXoDB0KB-160" source="y-TyGeWh9Q0BCXoDB0KB-127" target="y-TyGeWh9Q0BCXoDB0KB-123" edge="1">
          <mxGeometry width="160" relative="1" as="geometry">
            <mxPoint x="-38" y="660.55" as="sourcePoint" />
            <mxPoint x="122" y="660.55" as="targetPoint" />
          </mxGeometry>
        </mxCell>
        <mxCell id="y-TyGeWh9Q0BCXoDB0KB-170" value="&amp;lt;&amp;lt;include&amp;gt;&amp;gt;" style="edgeStyle=none;html=1;endArrow=open;verticalAlign=bottom;dashed=1;labelBackgroundColor=none;fontSize=11;entryX=0.5;entryY=1;entryDx=0;entryDy=0;exitX=0;exitY=0.5;exitDx=0;exitDy=0;" parent="y-TyGeWh9Q0BCXoDB0KB-160" source="y-TyGeWh9Q0BCXoDB0KB-128" target="y-TyGeWh9Q0BCXoDB0KB-123" edge="1">
          <mxGeometry width="160" relative="1" as="geometry">
            <mxPoint x="-38" y="660.55" as="sourcePoint" />
            <mxPoint x="122" y="660.55" as="targetPoint" />
          </mxGeometry>
        </mxCell>
        <mxCell id="y-TyGeWh9Q0BCXoDB0KB-171" value="&amp;lt;&amp;lt;include&amp;gt;&amp;gt;" style="edgeStyle=none;html=1;endArrow=open;verticalAlign=bottom;dashed=1;labelBackgroundColor=none;fontSize=11;entryX=0.5;entryY=1;entryDx=0;entryDy=0;exitX=0;exitY=0.5;exitDx=0;exitDy=0;" parent="y-TyGeWh9Q0BCXoDB0KB-160" source="y-TyGeWh9Q0BCXoDB0KB-129" target="y-TyGeWh9Q0BCXoDB0KB-123" edge="1">
          <mxGeometry width="160" relative="1" as="geometry">
            <mxPoint x="-38" y="660.55" as="sourcePoint" />
            <mxPoint x="122" y="660.55" as="targetPoint" />
          </mxGeometry>
        </mxCell>
        <mxCell id="y-TyGeWh9Q0BCXoDB0KB-93" value="Search by Actor" style="ellipse;whiteSpace=wrap;html=1;" parent="y-TyGeWh9Q0BCXoDB0KB-160" vertex="1">
          <mxGeometry x="330" y="154" width="140" height="50" as="geometry" />
        </mxCell>
        <mxCell id="y-TyGeWh9Q0BCXoDB0KB-43" value="Search by Director" style="ellipse;whiteSpace=wrap;html=1;" parent="y-TyGeWh9Q0BCXoDB0KB-160" vertex="1">
          <mxGeometry x="330" y="102" width="140" height="50" as="geometry" />
        </mxCell>
        <mxCell id="y-TyGeWh9Q0BCXoDB0KB-44" value="Filter by Date" style="ellipse;whiteSpace=wrap;html=1;" parent="y-TyGeWh9Q0BCXoDB0KB-160" vertex="1">
          <mxGeometry x="40" y="420" width="140" height="50" as="geometry" />
        </mxCell>
        <mxCell id="y-TyGeWh9Q0BCXoDB0KB-45" value="Search by Name" style="ellipse;whiteSpace=wrap;html=1;" parent="y-TyGeWh9Q0BCXoDB0KB-160" vertex="1">
          <mxGeometry x="330" y="50" width="140" height="50" as="geometry" />
        </mxCell>
        <mxCell id="y-TyGeWh9Q0BCXoDB0KB-7" value="2.3 - Search Content" style="ellipse;whiteSpace=wrap;html=1;fillColor=#fff2cc;strokeColor=#d6b656;" parent="y-TyGeWh9Q0BCXoDB0KB-160" vertex="1">
          <mxGeometry x="230" y="212" width="140" height="50" as="geometry" />
        </mxCell>
        <mxCell id="y-TyGeWh9Q0BCXoDB0KB-94" value="2.5 - Sort Content List" style="ellipse;whiteSpace=wrap;html=1;fillColor=#fff2cc;strokeColor=#d6b656;" parent="y-TyGeWh9Q0BCXoDB0KB-160" vertex="1">
          <mxGeometry x="320" y="364" width="140" height="50" as="geometry" />
        </mxCell>
        <mxCell id="y-TyGeWh9Q0BCXoDB0KB-41" value="Sort by Date" style="ellipse;whiteSpace=wrap;html=1;" parent="y-TyGeWh9Q0BCXoDB0KB-160" vertex="1">
          <mxGeometry x="420" y="520" width="140" height="50" as="geometry" />
        </mxCell>
        <mxCell id="y-TyGeWh9Q0BCXoDB0KB-40" value="Sort by Name" style="ellipse;whiteSpace=wrap;html=1;" parent="y-TyGeWh9Q0BCXoDB0KB-160" vertex="1">
          <mxGeometry x="420" y="414" width="140" height="50" as="geometry" />
        </mxCell>
        <mxCell id="y-TyGeWh9Q0BCXoDB0KB-38" value="Sort by Rating" style="ellipse;whiteSpace=wrap;html=1;" parent="y-TyGeWh9Q0BCXoDB0KB-160" vertex="1">
          <mxGeometry x="420" y="466" width="140" height="50" as="geometry" />
        </mxCell>
        <mxCell id="y-TyGeWh9Q0BCXoDB0KB-140" value="2.1 - Browse Content List" style="ellipse;whiteSpace=wrap;html=1;fillColor=#fff2cc;strokeColor=#d6b656;" parent="y-TyGeWh9Q0BCXoDB0KB-160" vertex="1">
          <mxGeometry x="230" y="291" width="140" height="50" as="geometry" />
        </mxCell>
        <mxCell id="y-TyGeWh9Q0BCXoDB0KB-141" value="2.4 - Filter Content List" style="ellipse;whiteSpace=wrap;html=1;fillColor=#fff2cc;strokeColor=#d6b656;" parent="y-TyGeWh9Q0BCXoDB0KB-160" vertex="1">
          <mxGeometry x="131" y="364" width="140" height="50" as="geometry" />
        </mxCell>
        <mxCell id="y-TyGeWh9Q0BCXoDB0KB-143" value="&amp;lt;&amp;lt;extend&amp;gt;&amp;gt;" style="edgeStyle=none;html=1;startArrow=open;endArrow=none;startSize=12;verticalAlign=bottom;dashed=1;labelBackgroundColor=none;fontSize=11;exitX=0.5;exitY=0;exitDx=0;exitDy=0;entryX=0.5;entryY=1;entryDx=0;entryDy=0;" parent="y-TyGeWh9Q0BCXoDB0KB-160" source="y-TyGeWh9Q0BCXoDB0KB-140" target="y-TyGeWh9Q0BCXoDB0KB-7" edge="1">
          <mxGeometry width="160" relative="1" as="geometry">
            <mxPoint x="290" y="242" as="sourcePoint" />
            <mxPoint x="400" y="262" as="targetPoint" />
          </mxGeometry>
        </mxCell>
        <mxCell id="y-TyGeWh9Q0BCXoDB0KB-145" value="&amp;lt;&amp;lt;extend&amp;gt;&amp;gt;" style="edgeStyle=none;html=1;startArrow=open;endArrow=none;startSize=12;verticalAlign=bottom;dashed=1;labelBackgroundColor=none;fontSize=11;exitX=1;exitY=1;exitDx=0;exitDy=0;entryX=0.5;entryY=0;entryDx=0;entryDy=0;" parent="y-TyGeWh9Q0BCXoDB0KB-160" source="y-TyGeWh9Q0BCXoDB0KB-140" target="y-TyGeWh9Q0BCXoDB0KB-94" edge="1">
          <mxGeometry x="0.3985" y="4" width="160" relative="1" as="geometry">
            <mxPoint x="430" y="282" as="sourcePoint" />
            <mxPoint x="590" y="282" as="targetPoint" />
            <mxPoint as="offset" />
          </mxGeometry>
        </mxCell>
        <mxCell id="y-TyGeWh9Q0BCXoDB0KB-146" value="&amp;lt;&amp;lt;extend&amp;gt;&amp;gt;" style="edgeStyle=none;html=1;startArrow=open;endArrow=none;startSize=12;verticalAlign=bottom;dashed=1;labelBackgroundColor=none;fontSize=11;entryX=0.5;entryY=0;entryDx=0;entryDy=0;exitX=0;exitY=1;exitDx=0;exitDy=0;" parent="y-TyGeWh9Q0BCXoDB0KB-160" source="y-TyGeWh9Q0BCXoDB0KB-140" target="y-TyGeWh9Q0BCXoDB0KB-141" edge="1">
          <mxGeometry width="160" relative="1" as="geometry">
            <mxPoint x="290" y="362" as="sourcePoint" />
            <mxPoint x="450" y="362" as="targetPoint" />
          </mxGeometry>
        </mxCell>
        <mxCell id="y-TyGeWh9Q0BCXoDB0KB-147" value="Filter by Rating" style="ellipse;whiteSpace=wrap;html=1;" parent="y-TyGeWh9Q0BCXoDB0KB-160" vertex="1">
          <mxGeometry x="40" y="474" width="140" height="50" as="geometry" />
        </mxCell>
        <mxCell id="y-TyGeWh9Q0BCXoDB0KB-148" value="Filter by Genre" style="ellipse;whiteSpace=wrap;html=1;" parent="y-TyGeWh9Q0BCXoDB0KB-160" vertex="1">
          <mxGeometry x="40" y="526" width="140" height="50" as="geometry" />
        </mxCell>
        <mxCell id="y-TyGeWh9Q0BCXoDB0KB-150" value="" style="edgeStyle=none;html=1;endArrow=block;endFill=0;endSize=12;verticalAlign=bottom;fontSize=11;entryX=0.5;entryY=1;entryDx=0;entryDy=0;exitX=1;exitY=0.5;exitDx=0;exitDy=0;" parent="y-TyGeWh9Q0BCXoDB0KB-160" source="y-TyGeWh9Q0BCXoDB0KB-148" target="y-TyGeWh9Q0BCXoDB0KB-141" edge="1">
          <mxGeometry width="160" relative="1" as="geometry">
            <mxPoint x="190" y="582" as="sourcePoint" />
            <mxPoint x="350" y="582" as="targetPoint" />
          </mxGeometry>
        </mxCell>
        <mxCell id="y-TyGeWh9Q0BCXoDB0KB-151" value="" style="edgeStyle=none;html=1;endArrow=block;endFill=0;endSize=12;verticalAlign=bottom;fontSize=11;entryX=0.5;entryY=1;entryDx=0;entryDy=0;exitX=1;exitY=0.5;exitDx=0;exitDy=0;" parent="y-TyGeWh9Q0BCXoDB0KB-160" source="y-TyGeWh9Q0BCXoDB0KB-147" target="y-TyGeWh9Q0BCXoDB0KB-141" edge="1">
          <mxGeometry width="160" relative="1" as="geometry">
            <mxPoint x="170" y="570" as="sourcePoint" />
            <mxPoint x="330" y="570" as="targetPoint" />
          </mxGeometry>
        </mxCell>
        <mxCell id="y-TyGeWh9Q0BCXoDB0KB-152" value="" style="edgeStyle=none;html=1;endArrow=block;endFill=0;endSize=12;verticalAlign=bottom;fontSize=11;entryX=0.5;entryY=1;entryDx=0;entryDy=0;exitX=1;exitY=0.5;exitDx=0;exitDy=0;" parent="y-TyGeWh9Q0BCXoDB0KB-160" source="y-TyGeWh9Q0BCXoDB0KB-44" target="y-TyGeWh9Q0BCXoDB0KB-141" edge="1">
          <mxGeometry width="160" relative="1" as="geometry">
            <mxPoint x="180" y="490" as="sourcePoint" />
            <mxPoint x="340" y="490.4100000000001" as="targetPoint" />
          </mxGeometry>
        </mxCell>
        <mxCell id="y-TyGeWh9Q0BCXoDB0KB-153" value="" style="edgeStyle=none;html=1;endArrow=block;endFill=0;endSize=12;verticalAlign=bottom;fontSize=11;exitX=0;exitY=0.5;exitDx=0;exitDy=0;entryX=0.5;entryY=0;entryDx=0;entryDy=0;" parent="y-TyGeWh9Q0BCXoDB0KB-160" source="y-TyGeWh9Q0BCXoDB0KB-93" target="y-TyGeWh9Q0BCXoDB0KB-7" edge="1">
          <mxGeometry width="160" relative="1" as="geometry">
            <mxPoint x="290" y="242" as="sourcePoint" />
            <mxPoint x="450" y="242" as="targetPoint" />
          </mxGeometry>
        </mxCell>
        <mxCell id="y-TyGeWh9Q0BCXoDB0KB-154" value="" style="edgeStyle=none;html=1;endArrow=block;endFill=0;endSize=12;verticalAlign=bottom;fontSize=11;exitX=0;exitY=0.5;exitDx=0;exitDy=0;entryX=0.5;entryY=0;entryDx=0;entryDy=0;" parent="y-TyGeWh9Q0BCXoDB0KB-160" source="y-TyGeWh9Q0BCXoDB0KB-43" target="y-TyGeWh9Q0BCXoDB0KB-7" edge="1">
          <mxGeometry width="160" relative="1" as="geometry">
            <mxPoint x="290" y="242" as="sourcePoint" />
            <mxPoint x="450" y="242" as="targetPoint" />
          </mxGeometry>
        </mxCell>
        <mxCell id="y-TyGeWh9Q0BCXoDB0KB-155" value="" style="edgeStyle=none;html=1;endArrow=block;endFill=0;endSize=12;verticalAlign=bottom;fontSize=11;exitX=0;exitY=0.5;exitDx=0;exitDy=0;entryX=0.5;entryY=0;entryDx=0;entryDy=0;" parent="y-TyGeWh9Q0BCXoDB0KB-160" source="y-TyGeWh9Q0BCXoDB0KB-45" target="y-TyGeWh9Q0BCXoDB0KB-7" edge="1">
          <mxGeometry width="160" relative="1" as="geometry">
            <mxPoint x="290" y="242" as="sourcePoint" />
            <mxPoint x="450" y="242" as="targetPoint" />
          </mxGeometry>
        </mxCell>
        <mxCell id="y-TyGeWh9Q0BCXoDB0KB-156" value="" style="edgeStyle=none;html=1;endArrow=block;endFill=0;endSize=12;verticalAlign=bottom;fontSize=11;entryX=0.5;entryY=1;entryDx=0;entryDy=0;exitX=0;exitY=0.5;exitDx=0;exitDy=0;" parent="y-TyGeWh9Q0BCXoDB0KB-160" source="y-TyGeWh9Q0BCXoDB0KB-41" target="y-TyGeWh9Q0BCXoDB0KB-94" edge="1">
          <mxGeometry width="160" relative="1" as="geometry">
            <mxPoint x="220" y="512" as="sourcePoint" />
            <mxPoint x="380" y="512" as="targetPoint" />
          </mxGeometry>
        </mxCell>
        <mxCell id="y-TyGeWh9Q0BCXoDB0KB-157" value="" style="edgeStyle=none;html=1;endArrow=block;endFill=0;endSize=12;verticalAlign=bottom;fontSize=11;entryX=0.5;entryY=1;entryDx=0;entryDy=0;exitX=0;exitY=0.5;exitDx=0;exitDy=0;" parent="y-TyGeWh9Q0BCXoDB0KB-160" source="y-TyGeWh9Q0BCXoDB0KB-38" target="y-TyGeWh9Q0BCXoDB0KB-94" edge="1">
          <mxGeometry width="160" relative="1" as="geometry">
            <mxPoint x="290" y="362" as="sourcePoint" />
            <mxPoint x="450" y="362" as="targetPoint" />
          </mxGeometry>
        </mxCell>
        <mxCell id="y-TyGeWh9Q0BCXoDB0KB-158" value="" style="edgeStyle=none;html=1;endArrow=block;endFill=0;endSize=12;verticalAlign=bottom;fontSize=11;exitX=0;exitY=0.5;exitDx=0;exitDy=0;entryX=0.5;entryY=1;entryDx=0;entryDy=0;" parent="y-TyGeWh9Q0BCXoDB0KB-160" source="y-TyGeWh9Q0BCXoDB0KB-40" target="y-TyGeWh9Q0BCXoDB0KB-94" edge="1">
          <mxGeometry width="160" relative="1" as="geometry">
            <mxPoint x="290" y="362" as="sourcePoint" />
            <mxPoint x="450" y="362" as="targetPoint" />
          </mxGeometry>
        </mxCell>
        <mxCell id="y-TyGeWh9Q0BCXoDB0KB-103" value="2.2 - Generate Content Lists" style="ellipse;whiteSpace=wrap;html=1;fillColor=#fff2cc;strokeColor=#d6b656;" parent="y-TyGeWh9Q0BCXoDB0KB-160" vertex="1">
          <mxGeometry x="560" y="291" width="140" height="50" as="geometry" />
        </mxCell>
        <mxCell id="y-TyGeWh9Q0BCXoDB0KB-130" value="Generate &quot;What&#39;s new&quot; List" style="ellipse;whiteSpace=wrap;html=1;" parent="y-TyGeWh9Q0BCXoDB0KB-160" vertex="1">
          <mxGeometry x="640" y="351" width="140" height="49" as="geometry" />
        </mxCell>
        <mxCell id="y-TyGeWh9Q0BCXoDB0KB-131" value="Generate &quot;Top rated&quot; List" style="ellipse;whiteSpace=wrap;html=1;" parent="y-TyGeWh9Q0BCXoDB0KB-160" vertex="1">
          <mxGeometry x="640" y="402" width="140" height="49" as="geometry" />
        </mxCell>
        <mxCell id="y-TyGeWh9Q0BCXoDB0KB-132" value="Generate &quot;Recommended for you&quot; List" style="ellipse;whiteSpace=wrap;html=1;" parent="y-TyGeWh9Q0BCXoDB0KB-160" vertex="1">
          <mxGeometry x="640" y="453" width="140" height="49" as="geometry" />
        </mxCell>
        <mxCell id="y-TyGeWh9Q0BCXoDB0KB-134" value="Generate &quot;You watched recently&quot; List" style="ellipse;whiteSpace=wrap;html=1;" parent="y-TyGeWh9Q0BCXoDB0KB-160" vertex="1">
          <mxGeometry x="640" y="505" width="140" height="49" as="geometry" />
        </mxCell>
        <mxCell id="y-TyGeWh9Q0BCXoDB0KB-164" value="" style="edgeStyle=none;html=1;endArrow=block;endFill=0;endSize=12;verticalAlign=bottom;fontSize=11;entryX=0.5;entryY=1;entryDx=0;entryDy=0;exitX=0;exitY=0.5;exitDx=0;exitDy=0;" parent="y-TyGeWh9Q0BCXoDB0KB-160" source="y-TyGeWh9Q0BCXoDB0KB-130" target="y-TyGeWh9Q0BCXoDB0KB-103" edge="1">
          <mxGeometry width="160" relative="1" as="geometry">
            <mxPoint x="430" y="367" as="sourcePoint" />
            <mxPoint x="590" y="367" as="targetPoint" />
          </mxGeometry>
        </mxCell>
        <mxCell id="y-TyGeWh9Q0BCXoDB0KB-165" value="" style="edgeStyle=none;html=1;endArrow=block;endFill=0;endSize=12;verticalAlign=bottom;fontSize=11;entryX=0.5;entryY=1;entryDx=0;entryDy=0;exitX=0;exitY=0.5;exitDx=0;exitDy=0;" parent="y-TyGeWh9Q0BCXoDB0KB-160" source="y-TyGeWh9Q0BCXoDB0KB-131" target="y-TyGeWh9Q0BCXoDB0KB-103" edge="1">
          <mxGeometry width="160" relative="1" as="geometry">
            <mxPoint x="470" y="417" as="sourcePoint" />
            <mxPoint x="630" y="417" as="targetPoint" />
          </mxGeometry>
        </mxCell>
        <mxCell id="y-TyGeWh9Q0BCXoDB0KB-166" value="" style="edgeStyle=none;html=1;endArrow=block;endFill=0;endSize=12;verticalAlign=bottom;fontSize=11;exitX=0;exitY=0.5;exitDx=0;exitDy=0;entryX=0.5;entryY=1;entryDx=0;entryDy=0;" parent="y-TyGeWh9Q0BCXoDB0KB-160" source="y-TyGeWh9Q0BCXoDB0KB-132" target="y-TyGeWh9Q0BCXoDB0KB-103" edge="1">
          <mxGeometry width="160" relative="1" as="geometry">
            <mxPoint x="-130" y="237" as="sourcePoint" />
            <mxPoint x="630" y="337" as="targetPoint" />
          </mxGeometry>
        </mxCell>
        <mxCell id="y-TyGeWh9Q0BCXoDB0KB-167" value="" style="edgeStyle=none;html=1;endArrow=block;endFill=0;endSize=12;verticalAlign=bottom;fontSize=11;entryX=0.5;entryY=1;entryDx=0;entryDy=0;exitX=0;exitY=0.5;exitDx=0;exitDy=0;" parent="y-TyGeWh9Q0BCXoDB0KB-160" source="y-TyGeWh9Q0BCXoDB0KB-134" target="y-TyGeWh9Q0BCXoDB0KB-103" edge="1">
          <mxGeometry width="160" relative="1" as="geometry">
            <mxPoint x="-130" y="407" as="sourcePoint" />
            <mxPoint x="30" y="407" as="targetPoint" />
          </mxGeometry>
        </mxCell>
        <mxCell id="y-TyGeWh9Q0BCXoDB0KB-168" value="&amp;lt;&amp;lt;include&amp;gt;&amp;gt;" style="edgeStyle=none;html=1;endArrow=open;verticalAlign=bottom;dashed=1;labelBackgroundColor=none;fontSize=11;exitX=0;exitY=0.5;exitDx=0;exitDy=0;entryX=1;entryY=0.5;entryDx=0;entryDy=0;" parent="y-TyGeWh9Q0BCXoDB0KB-160" source="y-TyGeWh9Q0BCXoDB0KB-103" target="y-TyGeWh9Q0BCXoDB0KB-140" edge="1">
          <mxGeometry width="160" relative="1" as="geometry">
            <mxPoint x="580" y="200" as="sourcePoint" />
            <mxPoint x="740" y="200" as="targetPoint" />
          </mxGeometry>
        </mxCell>
        <mxCell id="y-TyGeWh9Q0BCXoDB0KB-172" value="&amp;lt;&amp;lt;extend&amp;gt;&amp;gt;" style="edgeStyle=none;html=1;startArrow=open;endArrow=none;startSize=12;verticalAlign=bottom;dashed=1;labelBackgroundColor=none;fontSize=11;entryX=0;entryY=0;entryDx=0;entryDy=0;exitX=0.5;exitY=1;exitDx=0;exitDy=0;" parent="y-TyGeWh9Q0BCXoDB0KB-160" source="y-TyGeWh9Q0BCXoDB0KB-124" target="y-TyGeWh9Q0BCXoDB0KB-9" edge="1">
          <mxGeometry width="160" relative="1" as="geometry">
            <mxPoint x="430" y="504.54999999999995" as="sourcePoint" />
            <mxPoint x="590" y="504.54999999999995" as="targetPoint" />
          </mxGeometry>
        </mxCell>
        <mxCell id="y-TyGeWh9Q0BCXoDB0KB-173" value="&amp;lt;&amp;lt;extend&amp;gt;&amp;gt;" style="edgeStyle=none;html=1;startArrow=open;endArrow=none;startSize=12;verticalAlign=bottom;dashed=1;labelBackgroundColor=none;fontSize=11;entryX=1;entryY=0;entryDx=0;entryDy=0;exitX=0.5;exitY=1;exitDx=0;exitDy=0;" parent="y-TyGeWh9Q0BCXoDB0KB-160" source="y-TyGeWh9Q0BCXoDB0KB-140" target="y-TyGeWh9Q0BCXoDB0KB-9" edge="1">
          <mxGeometry width="160" relative="1" as="geometry">
            <mxPoint x="430" y="504.54999999999995" as="sourcePoint" />
            <mxPoint x="590" y="504.54999999999995" as="targetPoint" />
          </mxGeometry>
        </mxCell>
        <mxCell id="y-TyGeWh9Q0BCXoDB0KB-174" value="&amp;lt;&amp;lt;extend&amp;gt;&amp;gt;" style="edgeStyle=none;html=1;startArrow=open;endArrow=none;startSize=12;verticalAlign=bottom;dashed=1;labelBackgroundColor=none;fontSize=11;entryX=1;entryY=0;entryDx=0;entryDy=0;exitX=0;exitY=1;exitDx=0;exitDy=0;" parent="y-TyGeWh9Q0BCXoDB0KB-160" source="y-TyGeWh9Q0BCXoDB0KB-123" target="y-TyGeWh9Q0BCXoDB0KB-9" edge="1">
          <mxGeometry width="160" relative="1" as="geometry">
            <mxPoint x="214" y="584.55" as="sourcePoint" />
            <mxPoint x="374" y="584.55" as="targetPoint" />
          </mxGeometry>
        </mxCell>
        <mxCell id="y-TyGeWh9Q0BCXoDB0KB-175" value="" style="edgeStyle=none;html=1;endArrow=block;endFill=0;endSize=12;verticalAlign=bottom;fontSize=11;entryX=0.5;entryY=1;entryDx=0;entryDy=0;exitX=1;exitY=0.5;exitDx=0;exitDy=0;" parent="y-TyGeWh9Q0BCXoDB0KB-160" source="y-TyGeWh9Q0BCXoDB0KB-125" target="y-TyGeWh9Q0BCXoDB0KB-9" edge="1">
          <mxGeometry width="160" relative="1" as="geometry">
            <mxPoint x="40" y="644.55" as="sourcePoint" />
            <mxPoint x="200" y="644.55" as="targetPoint" />
          </mxGeometry>
        </mxCell>
        <mxCell id="y-TyGeWh9Q0BCXoDB0KB-176" value="" style="edgeStyle=none;html=1;endArrow=block;endFill=0;endSize=12;verticalAlign=bottom;fontSize=11;entryX=0.5;entryY=1;entryDx=0;entryDy=0;exitX=1;exitY=0.5;exitDx=0;exitDy=0;" parent="y-TyGeWh9Q0BCXoDB0KB-160" source="y-TyGeWh9Q0BCXoDB0KB-126" target="y-TyGeWh9Q0BCXoDB0KB-9" edge="1">
          <mxGeometry width="160" relative="1" as="geometry">
            <mxPoint x="40" y="644.55" as="sourcePoint" />
            <mxPoint x="200" y="644.55" as="targetPoint" />
          </mxGeometry>
        </mxCell>
        <mxCell id="Z8aOUXE85AK16DIpraYv-20" value="&amp;lt;&amp;lt;include&amp;gt;&amp;gt;" style="edgeStyle=orthogonalEdgeStyle;html=1;endArrow=open;verticalAlign=bottom;dashed=1;labelBackgroundColor=none;fontSize=11;exitX=0.5;exitY=0;exitDx=0;exitDy=0;entryX=1;entryY=0.5;entryDx=0;entryDy=0;curved=1;" parent="y-TyGeWh9Q0BCXoDB0KB-160" source="y-TyGeWh9Q0BCXoDB0KB-104" target="y-TyGeWh9Q0BCXoDB0KB-140" edge="1">
          <mxGeometry x="-0.2083" y="54" width="160" relative="1" as="geometry">
            <mxPoint x="610" y="460" as="sourcePoint" />
            <mxPoint x="770" y="460" as="targetPoint" />
            <mxPoint as="offset" />
          </mxGeometry>
        </mxCell>
        <mxCell id="Z8aOUXE85AK16DIpraYv-21" value="&amp;lt;&amp;lt;include&amp;gt;&amp;gt;" style="edgeStyle=none;html=1;endArrow=open;verticalAlign=bottom;dashed=1;labelBackgroundColor=none;fontSize=11;exitX=0;exitY=0.5;exitDx=0;exitDy=0;entryX=1;entryY=0.5;entryDx=0;entryDy=0;" parent="y-TyGeWh9Q0BCXoDB0KB-160" source="y-TyGeWh9Q0BCXoDB0KB-104" target="y-TyGeWh9Q0BCXoDB0KB-123" edge="1">
          <mxGeometry width="160" relative="1" as="geometry">
            <mxPoint x="610" y="460" as="sourcePoint" />
            <mxPoint x="770" y="460" as="targetPoint" />
          </mxGeometry>
        </mxCell>
        <mxCell id="Z8aOUXE85AK16DIpraYv-7" value="Browse Season" style="ellipse;whiteSpace=wrap;html=1;" parent="y-TyGeWh9Q0BCXoDB0KB-160" vertex="1">
          <mxGeometry x="610" y="700" width="140" height="50" as="geometry" />
        </mxCell>
        <mxCell id="ejGbgnozjiQMNGh3EYnC-8" value="Browse Episode" style="ellipse;whiteSpace=wrap;html=1;" vertex="1" parent="y-TyGeWh9Q0BCXoDB0KB-160">
          <mxGeometry x="580" y="758.55" width="140" height="50" as="geometry" />
        </mxCell>
        <mxCell id="ejGbgnozjiQMNGh3EYnC-9" value="&amp;lt;&amp;lt;extend&amp;gt;&amp;gt;" style="edgeStyle=none;html=1;startArrow=open;endArrow=none;startSize=12;verticalAlign=bottom;dashed=1;labelBackgroundColor=none;exitX=1;exitY=1;exitDx=0;exitDy=0;entryX=0;entryY=0;entryDx=0;entryDy=0;" edge="1" parent="y-TyGeWh9Q0BCXoDB0KB-160" source="y-TyGeWh9Q0BCXoDB0KB-123" target="Z8aOUXE85AK16DIpraYv-7">
          <mxGeometry width="160" relative="1" as="geometry">
            <mxPoint x="600" y="720" as="sourcePoint" />
            <mxPoint x="760" y="720" as="targetPoint" />
          </mxGeometry>
        </mxCell>
        <mxCell id="ejGbgnozjiQMNGh3EYnC-10" value="&amp;lt;&amp;lt;extend&amp;gt;&amp;gt;" style="edgeStyle=none;html=1;startArrow=open;endArrow=none;startSize=12;verticalAlign=bottom;dashed=1;labelBackgroundColor=none;entryX=0.5;entryY=0;entryDx=0;entryDy=0;exitX=1;exitY=1;exitDx=0;exitDy=0;" edge="1" parent="y-TyGeWh9Q0BCXoDB0KB-160" source="y-TyGeWh9Q0BCXoDB0KB-123" target="ejGbgnozjiQMNGh3EYnC-8">
          <mxGeometry width="160" relative="1" as="geometry">
            <mxPoint x="600" y="720" as="sourcePoint" />
            <mxPoint x="760" y="720" as="targetPoint" />
          </mxGeometry>
        </mxCell>
        <mxCell id="ejGbgnozjiQMNGh3EYnC-11" value="2.9 - Browse EPG" style="ellipse;whiteSpace=wrap;html=1;fillColor=#fff2cc;strokeColor=#d6b656;" vertex="1" parent="y-TyGeWh9Q0BCXoDB0KB-160">
          <mxGeometry x="420" y="880" width="140" height="50" as="geometry" />
        </mxCell>
        <mxCell id="ejGbgnozjiQMNGh3EYnC-75" value="2.10 - Browse Home&lt;br&gt;page" style="ellipse;whiteSpace=wrap;html=1;fillColor=#fff2cc;strokeColor=#d6b656;" vertex="1" parent="y-TyGeWh9Q0BCXoDB0KB-160">
          <mxGeometry x="640" y="40" width="140" height="50" as="geometry" />
        </mxCell>
        <mxCell id="ejGbgnozjiQMNGh3EYnC-77" value="&amp;lt;&amp;lt;include&amp;gt;&amp;gt;" style="edgeStyle=none;html=1;endArrow=open;verticalAlign=bottom;dashed=1;labelBackgroundColor=none;exitX=1;exitY=0;exitDx=0;exitDy=0;entryX=0.5;entryY=1;entryDx=0;entryDy=0;" edge="1" parent="y-TyGeWh9Q0BCXoDB0KB-160" source="y-TyGeWh9Q0BCXoDB0KB-103" target="ejGbgnozjiQMNGh3EYnC-75">
          <mxGeometry width="160" relative="1" as="geometry">
            <mxPoint x="640" y="140" as="sourcePoint" />
            <mxPoint x="800" y="140" as="targetPoint" />
          </mxGeometry>
        </mxCell>
        <mxCell id="y-TyGeWh9Q0BCXoDB0KB-24" value="" style="edgeStyle=orthogonalEdgeStyle;html=1;endArrow=none;verticalAlign=bottom;entryX=0;entryY=0.5;entryDx=0;entryDy=0;exitX=0.5;exitY=0.5;exitDx=0;exitDy=0;exitPerimeter=0;curved=1;fillColor=#008a00;strokeColor=#005700;" parent="1" source="y-TyGeWh9Q0BCXoDB0KB-1" target="y-TyGeWh9Q0BCXoDB0KB-7" edge="1">
          <mxGeometry width="160" relative="1" as="geometry">
            <mxPoint x="75" y="536" as="sourcePoint" />
            <mxPoint x="235" y="536" as="targetPoint" />
          </mxGeometry>
        </mxCell>
        <mxCell id="Z8aOUXE85AK16DIpraYv-2" value="" style="shape=folder;fontStyle=1;spacingTop=10;tabWidth=142;tabHeight=22;tabPosition=left;html=1;verticalAlign=top;align=left;strokeColor=#B9E0A5;strokeWidth=3;" parent="1" vertex="1">
          <mxGeometry x="210" y="1550" width="830" height="730" as="geometry" />
        </mxCell>
        <mxCell id="Z8aOUXE85AK16DIpraYv-3" value="3 - Watching" style="text;html=1;strokeColor=none;fillColor=none;align=left;verticalAlign=middle;whiteSpace=wrap;rounded=0;fontSize=14;" parent="1" vertex="1">
          <mxGeometry x="226.6" y="1550" width="123.4" height="20" as="geometry" />
        </mxCell>
        <mxCell id="y-TyGeWh9Q0BCXoDB0KB-8" value="3.1 - Watch Content" style="ellipse;whiteSpace=wrap;html=1;fillColor=#fff2cc;strokeColor=#d6b656;" parent="1" vertex="1">
          <mxGeometry x="349" y="1881" width="140" height="49" as="geometry" />
        </mxCell>
        <mxCell id="y-TyGeWh9Q0BCXoDB0KB-105" value="Play Video" style="ellipse;whiteSpace=wrap;html=1;" parent="1" vertex="1">
          <mxGeometry x="255" y="1950" width="140" height="50" as="geometry" />
        </mxCell>
        <mxCell id="y-TyGeWh9Q0BCXoDB0KB-106" value="Pause Video" style="ellipse;whiteSpace=wrap;html=1;" parent="1" vertex="1">
          <mxGeometry x="255" y="2002" width="140" height="50" as="geometry" />
        </mxCell>
        <mxCell id="y-TyGeWh9Q0BCXoDB0KB-107" value="Stop Video" style="ellipse;whiteSpace=wrap;html=1;" parent="1" vertex="1">
          <mxGeometry x="256" y="2054" width="140" height="50" as="geometry" />
        </mxCell>
        <mxCell id="y-TyGeWh9Q0BCXoDB0KB-108" value="Change Volume" style="ellipse;whiteSpace=wrap;html=1;" parent="1" vertex="1">
          <mxGeometry x="256" y="2106" width="140" height="50" as="geometry" />
        </mxCell>
        <mxCell id="y-TyGeWh9Q0BCXoDB0KB-109" value="Move Video to Specific Time" style="ellipse;whiteSpace=wrap;html=1;" parent="1" vertex="1">
          <mxGeometry x="445" y="2002" width="140" height="50" as="geometry" />
        </mxCell>
        <mxCell id="y-TyGeWh9Q0BCXoDB0KB-110" value="3.3 - Rate Content" style="ellipse;whiteSpace=wrap;html=1;fillColor=#fff2cc;strokeColor=#d6b656;" parent="1" vertex="1">
          <mxGeometry x="349" y="1610" width="140" height="49" as="geometry" />
        </mxCell>
        <mxCell id="y-TyGeWh9Q0BCXoDB0KB-111" value="3.2 - Share Content" style="ellipse;whiteSpace=wrap;html=1;fillColor=#fff2cc;strokeColor=#d6b656;" parent="1" vertex="1">
          <mxGeometry x="630" y="1890.5" width="140" height="49" as="geometry" />
        </mxCell>
        <mxCell id="y-TyGeWh9Q0BCXoDB0KB-112" value="Analyze Video Watching" style="ellipse;whiteSpace=wrap;html=1;fillColor=#ffffff;strokeColor=#000000;" parent="1" vertex="1">
          <mxGeometry x="870" y="1600" width="140" height="50" as="geometry" />
        </mxCell>
        <mxCell id="y-TyGeWh9Q0BCXoDB0KB-113" value="3.4 - Comment Content" style="ellipse;whiteSpace=wrap;html=1;fillColor=#fff2cc;strokeColor=#d6b656;" parent="1" vertex="1">
          <mxGeometry x="540" y="1728" width="140" height="49" as="geometry" />
        </mxCell>
        <mxCell id="y-TyGeWh9Q0BCXoDB0KB-114" value="Analyze Playing Metrics" style="ellipse;whiteSpace=wrap;html=1;" parent="1" vertex="1">
          <mxGeometry x="776" y="1800" width="140" height="50" as="geometry" />
        </mxCell>
        <mxCell id="y-TyGeWh9Q0BCXoDB0KB-115" value="Analyze Rating Metrics" style="ellipse;whiteSpace=wrap;html=1;" parent="1" vertex="1">
          <mxGeometry x="776" y="1659" width="140" height="50" as="geometry" />
        </mxCell>
        <mxCell id="y-TyGeWh9Q0BCXoDB0KB-116" value="Analyze Commenting Metrics" style="ellipse;whiteSpace=wrap;html=1;" parent="1" vertex="1">
          <mxGeometry x="776" y="1728" width="140" height="50" as="geometry" />
        </mxCell>
        <mxCell id="Z8aOUXE85AK16DIpraYv-6" value="Select Episode" style="ellipse;whiteSpace=wrap;html=1;" parent="1" vertex="1">
          <mxGeometry x="445" y="1950" width="140" height="50" as="geometry" />
        </mxCell>
        <mxCell id="Z8aOUXE85AK16DIpraYv-8" value="Change Video Quality" style="ellipse;whiteSpace=wrap;html=1;" parent="1" vertex="1">
          <mxGeometry x="256" y="2158" width="140" height="50" as="geometry" />
        </mxCell>
        <mxCell id="Z8aOUXE85AK16DIpraYv-10" value="&amp;lt;&amp;lt;extend&amp;gt;&amp;gt;" style="edgeStyle=none;html=1;startArrow=open;endArrow=none;startSize=12;verticalAlign=bottom;dashed=1;labelBackgroundColor=none;fontSize=11;entryX=0.5;entryY=0;entryDx=0;entryDy=0;exitX=0;exitY=1;exitDx=0;exitDy=0;" parent="1" source="y-TyGeWh9Q0BCXoDB0KB-123" target="y-TyGeWh9Q0BCXoDB0KB-110" edge="1">
          <mxGeometry width="160" relative="1" as="geometry">
            <mxPoint x="320" y="1590" as="sourcePoint" />
            <mxPoint x="480" y="1590" as="targetPoint" />
          </mxGeometry>
        </mxCell>
        <mxCell id="Z8aOUXE85AK16DIpraYv-11" value="&amp;lt;&amp;lt;extend&amp;gt;&amp;gt;" style="edgeStyle=none;html=1;startArrow=open;endArrow=none;startSize=12;verticalAlign=bottom;dashed=1;labelBackgroundColor=none;fontSize=11;entryX=0.5;entryY=1;entryDx=0;entryDy=0;exitX=0.5;exitY=0;exitDx=0;exitDy=0;" parent="1" source="y-TyGeWh9Q0BCXoDB0KB-8" target="y-TyGeWh9Q0BCXoDB0KB-110" edge="1">
          <mxGeometry width="160" relative="1" as="geometry">
            <mxPoint x="825" y="1700" as="sourcePoint" />
            <mxPoint x="985" y="1700" as="targetPoint" />
          </mxGeometry>
        </mxCell>
        <mxCell id="Z8aOUXE85AK16DIpraYv-12" value="&amp;lt;&amp;lt;extend&amp;gt;&amp;gt;" style="edgeStyle=none;html=1;startArrow=open;endArrow=none;startSize=12;verticalAlign=bottom;dashed=1;labelBackgroundColor=none;fontSize=11;entryX=0;entryY=0.5;entryDx=0;entryDy=0;exitX=1;exitY=0.5;exitDx=0;exitDy=0;" parent="1" source="y-TyGeWh9Q0BCXoDB0KB-8" target="y-TyGeWh9Q0BCXoDB0KB-111" edge="1">
          <mxGeometry width="160" relative="1" as="geometry">
            <mxPoint x="825" y="1700" as="sourcePoint" />
            <mxPoint x="985" y="1700" as="targetPoint" />
          </mxGeometry>
        </mxCell>
        <mxCell id="Z8aOUXE85AK16DIpraYv-17" value="&amp;lt;&amp;lt;include&amp;gt;&amp;gt;" style="edgeStyle=none;html=1;endArrow=open;verticalAlign=bottom;dashed=1;labelBackgroundColor=none;fontSize=11;entryX=0.5;entryY=1;entryDx=0;entryDy=0;exitX=1;exitY=0.5;exitDx=0;exitDy=0;" parent="1" source="y-TyGeWh9Q0BCXoDB0KB-114" target="y-TyGeWh9Q0BCXoDB0KB-112" edge="1">
          <mxGeometry width="160" relative="1" as="geometry">
            <mxPoint x="820" y="2030" as="sourcePoint" />
            <mxPoint x="980" y="2030" as="targetPoint" />
          </mxGeometry>
        </mxCell>
        <mxCell id="Z8aOUXE85AK16DIpraYv-19" value="&amp;lt;&amp;lt;include&amp;gt;&amp;gt;" style="edgeStyle=none;html=1;endArrow=open;verticalAlign=bottom;dashed=1;labelBackgroundColor=none;fontSize=11;entryX=0.5;entryY=1;entryDx=0;entryDy=0;exitX=1;exitY=0.5;exitDx=0;exitDy=0;" parent="1" source="y-TyGeWh9Q0BCXoDB0KB-105" target="y-TyGeWh9Q0BCXoDB0KB-8" edge="1">
          <mxGeometry width="160" relative="1" as="geometry">
            <mxPoint x="350" y="2340" as="sourcePoint" />
            <mxPoint x="510" y="2340" as="targetPoint" />
          </mxGeometry>
        </mxCell>
        <mxCell id="Z8aOUXE85AK16DIpraYv-22" value="&amp;lt;&amp;lt;extend&amp;gt;&amp;gt;" style="edgeStyle=none;html=1;startArrow=open;endArrow=none;startSize=12;verticalAlign=bottom;dashed=1;labelBackgroundColor=none;fontSize=11;entryX=0.5;entryY=1;entryDx=0;entryDy=0;exitX=1;exitY=0;exitDx=0;exitDy=0;" parent="1" source="y-TyGeWh9Q0BCXoDB0KB-8" target="y-TyGeWh9Q0BCXoDB0KB-113" edge="1">
          <mxGeometry width="160" relative="1" as="geometry">
            <mxPoint x="820" y="1700" as="sourcePoint" />
            <mxPoint x="980" y="1700" as="targetPoint" />
          </mxGeometry>
        </mxCell>
        <mxCell id="ejGbgnozjiQMNGh3EYnC-1" value="&amp;lt;&amp;lt;include&amp;gt;&amp;gt;" style="edgeStyle=none;html=1;endArrow=open;verticalAlign=bottom;dashed=1;labelBackgroundColor=none;fontSize=11;exitX=1;exitY=1;exitDx=0;exitDy=0;entryX=0.5;entryY=0;entryDx=0;entryDy=0;" edge="1" parent="1" source="y-TyGeWh9Q0BCXoDB0KB-73" target="y-TyGeWh9Q0BCXoDB0KB-103">
          <mxGeometry width="160" relative="1" as="geometry">
            <mxPoint x="550" y="415" as="sourcePoint" />
            <mxPoint x="480" y="405" as="targetPoint" />
          </mxGeometry>
        </mxCell>
        <mxCell id="ejGbgnozjiQMNGh3EYnC-2" value="" style="edgeStyle=orthogonalEdgeStyle;html=1;endArrow=none;verticalAlign=bottom;entryX=0;entryY=0.5;entryDx=0;entryDy=0;exitX=0.5;exitY=0.5;exitDx=0;exitDy=0;exitPerimeter=0;curved=1;fillColor=#008a00;strokeColor=#005700;" edge="1" parent="1" source="y-TyGeWh9Q0BCXoDB0KB-1" target="y-TyGeWh9Q0BCXoDB0KB-141">
          <mxGeometry width="160" relative="1" as="geometry">
            <mxPoint x="50" y="551" as="sourcePoint" />
            <mxPoint x="450" y="817" as="targetPoint" />
            <Array as="points">
              <mxPoint x="190" y="541" />
              <mxPoint x="190" y="959" />
            </Array>
          </mxGeometry>
        </mxCell>
        <mxCell id="ejGbgnozjiQMNGh3EYnC-3" value="" style="edgeStyle=orthogonalEdgeStyle;html=1;endArrow=none;verticalAlign=bottom;entryX=0;entryY=0.5;entryDx=0;entryDy=0;exitX=0.5;exitY=0.5;exitDx=0;exitDy=0;exitPerimeter=0;curved=1;fillColor=#008a00;strokeColor=#005700;" edge="1" parent="1" source="y-TyGeWh9Q0BCXoDB0KB-1" target="y-TyGeWh9Q0BCXoDB0KB-140">
          <mxGeometry width="160" relative="1" as="geometry">
            <mxPoint x="60" y="561" as="sourcePoint" />
            <mxPoint x="460" y="827" as="targetPoint" />
            <Array as="points">
              <mxPoint x="230" y="541" />
              <mxPoint x="230" y="886" />
            </Array>
          </mxGeometry>
        </mxCell>
        <mxCell id="ejGbgnozjiQMNGh3EYnC-4" value="" style="edgeStyle=orthogonalEdgeStyle;html=1;endArrow=none;verticalAlign=bottom;entryX=0;entryY=0.5;entryDx=0;entryDy=0;exitX=0.5;exitY=0.5;exitDx=0;exitDy=0;exitPerimeter=0;curved=1;fillColor=#008a00;strokeColor=#005700;" edge="1" parent="1" source="y-TyGeWh9Q0BCXoDB0KB-1" target="y-TyGeWh9Q0BCXoDB0KB-9">
          <mxGeometry width="160" relative="1" as="geometry">
            <mxPoint x="70" y="571" as="sourcePoint" />
            <mxPoint x="470" y="837" as="targetPoint" />
            <Array as="points">
              <mxPoint x="70" y="541" />
              <mxPoint x="70" y="1329" />
            </Array>
          </mxGeometry>
        </mxCell>
        <mxCell id="ejGbgnozjiQMNGh3EYnC-5" value="" style="edgeStyle=orthogonalEdgeStyle;html=1;endArrow=none;verticalAlign=bottom;entryX=0;entryY=0.5;entryDx=0;entryDy=0;exitX=0.5;exitY=0.5;exitDx=0;exitDy=0;exitPerimeter=0;curved=1;fillColor=#008a00;strokeColor=#005700;" edge="1" parent="1" source="y-TyGeWh9Q0BCXoDB0KB-1" target="y-TyGeWh9Q0BCXoDB0KB-94">
          <mxGeometry width="160" relative="1" as="geometry">
            <mxPoint x="50" y="551" as="sourcePoint" />
            <mxPoint x="351" y="969" as="targetPoint" />
            <Array as="points">
              <mxPoint x="200" y="541" />
              <mxPoint x="200" y="920" />
              <mxPoint x="530" y="920" />
            </Array>
          </mxGeometry>
        </mxCell>
        <mxCell id="ejGbgnozjiQMNGh3EYnC-6" value="" style="edgeStyle=orthogonalEdgeStyle;html=1;endArrow=none;verticalAlign=bottom;entryX=0;entryY=0.5;entryDx=0;entryDy=0;exitX=0.5;exitY=0.5;exitDx=0;exitDy=0;exitPerimeter=0;curved=1;fillColor=#008a00;strokeColor=#005700;" edge="1" parent="1" source="y-TyGeWh9Q0BCXoDB0KB-1" target="y-TyGeWh9Q0BCXoDB0KB-123">
          <mxGeometry width="160" relative="1" as="geometry">
            <mxPoint x="50" y="551" as="sourcePoint" />
            <mxPoint x="351" y="969" as="targetPoint" />
            <Array as="points">
              <mxPoint x="140" y="541" />
              <mxPoint x="140" y="980" />
              <mxPoint x="530" y="980" />
            </Array>
          </mxGeometry>
        </mxCell>
        <mxCell id="ejGbgnozjiQMNGh3EYnC-7" value="" style="edgeStyle=orthogonalEdgeStyle;html=1;endArrow=none;verticalAlign=bottom;entryX=0;entryY=0.5;entryDx=0;entryDy=0;exitX=0.5;exitY=0.5;exitDx=0;exitDy=0;exitPerimeter=0;curved=1;fillColor=#008a00;strokeColor=#005700;" edge="1" parent="1" source="y-TyGeWh9Q0BCXoDB0KB-1" target="y-TyGeWh9Q0BCXoDB0KB-124">
          <mxGeometry width="160" relative="1" as="geometry">
            <mxPoint x="50" y="551" as="sourcePoint" />
            <mxPoint x="351" y="969" as="targetPoint" />
            <Array as="points">
              <mxPoint x="130" y="541" />
              <mxPoint x="130" y="1239" />
            </Array>
          </mxGeometry>
        </mxCell>
        <mxCell id="ejGbgnozjiQMNGh3EYnC-12" value="" style="edgeStyle=orthogonalEdgeStyle;html=1;endArrow=none;verticalAlign=bottom;entryX=0;entryY=0.5;entryDx=0;entryDy=0;exitX=0.5;exitY=0.5;exitDx=0;exitDy=0;exitPerimeter=0;curved=1;fillColor=#008a00;strokeColor=#005700;" edge="1" parent="1" source="y-TyGeWh9Q0BCXoDB0KB-1" target="ejGbgnozjiQMNGh3EYnC-11">
          <mxGeometry width="160" relative="1" as="geometry">
            <mxPoint x="50" y="551" as="sourcePoint" />
            <mxPoint x="400" y="1339.05" as="targetPoint" />
            <Array as="points">
              <mxPoint x="50" y="541" />
              <mxPoint x="50" y="570" />
              <mxPoint x="40" y="570" />
              <mxPoint x="40" y="1500" />
              <mxPoint x="630" y="1500" />
            </Array>
          </mxGeometry>
        </mxCell>
        <mxCell id="ejGbgnozjiQMNGh3EYnC-76" value="" style="edgeStyle=orthogonalEdgeStyle;html=1;endArrow=none;verticalAlign=bottom;exitX=0.5;exitY=0.5;exitDx=0;exitDy=0;exitPerimeter=0;curved=1;fillColor=#008a00;strokeColor=#005700;" edge="1" parent="1" source="y-TyGeWh9Q0BCXoDB0KB-1" target="ejGbgnozjiQMNGh3EYnC-75">
          <mxGeometry width="160" relative="1" as="geometry">
            <mxPoint x="50" y="551" as="sourcePoint" />
            <mxPoint x="450" y="817" as="targetPoint" />
          </mxGeometry>
        </mxCell>
        <mxCell id="ejGbgnozjiQMNGh3EYnC-78" value="Remember where user&lt;br&gt;stopped watching" style="ellipse;whiteSpace=wrap;html=1;" vertex="1" parent="1">
          <mxGeometry x="445" y="2054" width="140" height="50" as="geometry" />
        </mxCell>
        <mxCell id="ejGbgnozjiQMNGh3EYnC-79" value="Continue from last watched episode" style="ellipse;whiteSpace=wrap;html=1;" vertex="1" parent="1">
          <mxGeometry x="445" y="2106" width="140" height="50" as="geometry" />
        </mxCell>
        <mxCell id="ejGbgnozjiQMNGh3EYnC-80" value="&amp;lt;&amp;lt;include&amp;gt;&amp;gt;" style="edgeStyle=none;html=1;endArrow=open;verticalAlign=bottom;dashed=1;labelBackgroundColor=none;fontSize=11;exitX=1;exitY=0.5;exitDx=0;exitDy=0;entryX=0.5;entryY=1;entryDx=0;entryDy=0;" edge="1" parent="1" source="y-TyGeWh9Q0BCXoDB0KB-106" target="y-TyGeWh9Q0BCXoDB0KB-8">
          <mxGeometry width="160" relative="1" as="geometry">
            <mxPoint x="405" y="1985" as="sourcePoint" />
            <mxPoint x="429" y="1940" as="targetPoint" />
          </mxGeometry>
        </mxCell>
        <mxCell id="ejGbgnozjiQMNGh3EYnC-81" value="&amp;lt;&amp;lt;include&amp;gt;&amp;gt;" style="edgeStyle=none;html=1;endArrow=open;verticalAlign=bottom;dashed=1;labelBackgroundColor=none;fontSize=11;entryX=0.5;entryY=1;entryDx=0;entryDy=0;exitX=1;exitY=0.5;exitDx=0;exitDy=0;" edge="1" parent="1" source="y-TyGeWh9Q0BCXoDB0KB-107" target="y-TyGeWh9Q0BCXoDB0KB-8">
          <mxGeometry width="160" relative="1" as="geometry">
            <mxPoint x="415" y="1995" as="sourcePoint" />
            <mxPoint x="439" y="1950" as="targetPoint" />
          </mxGeometry>
        </mxCell>
        <mxCell id="ejGbgnozjiQMNGh3EYnC-82" value="&amp;lt;&amp;lt;include&amp;gt;&amp;gt;" style="edgeStyle=none;html=1;endArrow=open;verticalAlign=bottom;dashed=1;labelBackgroundColor=none;fontSize=11;entryX=0.5;entryY=1;entryDx=0;entryDy=0;exitX=1;exitY=0.5;exitDx=0;exitDy=0;" edge="1" parent="1" source="y-TyGeWh9Q0BCXoDB0KB-108" target="y-TyGeWh9Q0BCXoDB0KB-8">
          <mxGeometry width="160" relative="1" as="geometry">
            <mxPoint x="425" y="2005" as="sourcePoint" />
            <mxPoint x="449" y="1960" as="targetPoint" />
          </mxGeometry>
        </mxCell>
        <mxCell id="ejGbgnozjiQMNGh3EYnC-83" value="&amp;lt;&amp;lt;include&amp;gt;&amp;gt;" style="edgeStyle=none;html=1;endArrow=open;verticalAlign=bottom;dashed=1;labelBackgroundColor=none;fontSize=11;entryX=0.5;entryY=1;entryDx=0;entryDy=0;exitX=1;exitY=0.5;exitDx=0;exitDy=0;" edge="1" parent="1" source="Z8aOUXE85AK16DIpraYv-8" target="y-TyGeWh9Q0BCXoDB0KB-8">
          <mxGeometry width="160" relative="1" as="geometry">
            <mxPoint x="435" y="2015" as="sourcePoint" />
            <mxPoint x="459" y="1970" as="targetPoint" />
          </mxGeometry>
        </mxCell>
        <mxCell id="ejGbgnozjiQMNGh3EYnC-84" value="&amp;lt;&amp;lt;include&amp;gt;&amp;gt;" style="edgeStyle=none;html=1;endArrow=open;verticalAlign=bottom;dashed=1;labelBackgroundColor=none;fontSize=11;entryX=0.5;entryY=1;entryDx=0;entryDy=0;exitX=0;exitY=0.5;exitDx=0;exitDy=0;" edge="1" parent="1" source="ejGbgnozjiQMNGh3EYnC-79" target="y-TyGeWh9Q0BCXoDB0KB-8">
          <mxGeometry width="160" relative="1" as="geometry">
            <mxPoint x="445" y="2025" as="sourcePoint" />
            <mxPoint x="469" y="1980" as="targetPoint" />
          </mxGeometry>
        </mxCell>
        <mxCell id="ejGbgnozjiQMNGh3EYnC-85" value="&amp;lt;&amp;lt;include&amp;gt;&amp;gt;" style="edgeStyle=none;html=1;endArrow=open;verticalAlign=bottom;dashed=1;labelBackgroundColor=none;entryX=0.5;entryY=1;entryDx=0;entryDy=0;exitX=0;exitY=0.5;exitDx=0;exitDy=0;" edge="1" parent="1" source="ejGbgnozjiQMNGh3EYnC-78" target="y-TyGeWh9Q0BCXoDB0KB-8">
          <mxGeometry width="160" relative="1" as="geometry">
            <mxPoint x="440" y="1930" as="sourcePoint" />
            <mxPoint x="600" y="1930" as="targetPoint" />
          </mxGeometry>
        </mxCell>
        <mxCell id="ejGbgnozjiQMNGh3EYnC-86" value="&amp;lt;&amp;lt;include&amp;gt;&amp;gt;" style="edgeStyle=none;html=1;endArrow=open;verticalAlign=bottom;dashed=1;labelBackgroundColor=none;entryX=0.5;entryY=1;entryDx=0;entryDy=0;exitX=0;exitY=0.5;exitDx=0;exitDy=0;" edge="1" parent="1" source="y-TyGeWh9Q0BCXoDB0KB-109" target="y-TyGeWh9Q0BCXoDB0KB-8">
          <mxGeometry width="160" relative="1" as="geometry">
            <mxPoint x="440" y="1930" as="sourcePoint" />
            <mxPoint x="600" y="1930" as="targetPoint" />
          </mxGeometry>
        </mxCell>
        <mxCell id="ejGbgnozjiQMNGh3EYnC-87" value="&amp;lt;&amp;lt;include&amp;gt;&amp;gt;" style="edgeStyle=none;html=1;endArrow=open;verticalAlign=bottom;dashed=1;labelBackgroundColor=none;entryX=0.5;entryY=1;entryDx=0;entryDy=0;exitX=0;exitY=0.5;exitDx=0;exitDy=0;" edge="1" parent="1" source="Z8aOUXE85AK16DIpraYv-6" target="y-TyGeWh9Q0BCXoDB0KB-8">
          <mxGeometry width="160" relative="1" as="geometry">
            <mxPoint x="440" y="2030" as="sourcePoint" />
            <mxPoint x="600" y="2030" as="targetPoint" />
          </mxGeometry>
        </mxCell>
        <mxCell id="ejGbgnozjiQMNGh3EYnC-88" value="&amp;lt;&amp;lt;include&amp;gt;&amp;gt;" style="edgeStyle=none;html=1;endArrow=open;verticalAlign=bottom;dashed=1;labelBackgroundColor=none;entryX=0.5;entryY=1;entryDx=0;entryDy=0;exitX=1;exitY=0.5;exitDx=0;exitDy=0;" edge="1" parent="1" source="y-TyGeWh9Q0BCXoDB0KB-116" target="y-TyGeWh9Q0BCXoDB0KB-112">
          <mxGeometry width="160" relative="1" as="geometry">
            <mxPoint x="680" y="1730" as="sourcePoint" />
            <mxPoint x="840" y="1730" as="targetPoint" />
          </mxGeometry>
        </mxCell>
        <mxCell id="ejGbgnozjiQMNGh3EYnC-89" value="&amp;lt;&amp;lt;include&amp;gt;&amp;gt;" style="edgeStyle=none;html=1;endArrow=open;verticalAlign=bottom;dashed=1;labelBackgroundColor=none;entryX=0.5;entryY=1;entryDx=0;entryDy=0;exitX=1;exitY=0.5;exitDx=0;exitDy=0;" edge="1" parent="1" source="y-TyGeWh9Q0BCXoDB0KB-115" target="y-TyGeWh9Q0BCXoDB0KB-112">
          <mxGeometry width="160" relative="1" as="geometry">
            <mxPoint x="680" y="1730" as="sourcePoint" />
            <mxPoint x="840" y="1730" as="targetPoint" />
          </mxGeometry>
        </mxCell>
        <mxCell id="ejGbgnozjiQMNGh3EYnC-90" value="&amp;lt;&amp;lt;include&amp;gt;&amp;gt;" style="edgeStyle=none;html=1;endArrow=open;verticalAlign=bottom;dashed=1;labelBackgroundColor=none;entryX=1;entryY=0.5;entryDx=0;entryDy=0;exitX=0;exitY=0.5;exitDx=0;exitDy=0;" edge="1" parent="1" source="y-TyGeWh9Q0BCXoDB0KB-115" target="y-TyGeWh9Q0BCXoDB0KB-110">
          <mxGeometry width="160" relative="1" as="geometry">
            <mxPoint x="680" y="1730" as="sourcePoint" />
            <mxPoint x="840" y="1730" as="targetPoint" />
          </mxGeometry>
        </mxCell>
        <mxCell id="ejGbgnozjiQMNGh3EYnC-91" value="&amp;lt;&amp;lt;include&amp;gt;&amp;gt;" style="edgeStyle=none;html=1;endArrow=open;verticalAlign=bottom;dashed=1;labelBackgroundColor=none;exitX=0;exitY=0.5;exitDx=0;exitDy=0;entryX=1;entryY=0.5;entryDx=0;entryDy=0;" edge="1" parent="1" source="y-TyGeWh9Q0BCXoDB0KB-116" target="y-TyGeWh9Q0BCXoDB0KB-113">
          <mxGeometry width="160" relative="1" as="geometry">
            <mxPoint x="680" y="1730" as="sourcePoint" />
            <mxPoint x="840" y="1730" as="targetPoint" />
          </mxGeometry>
        </mxCell>
        <mxCell id="ejGbgnozjiQMNGh3EYnC-92" value="&amp;lt;&amp;lt;include&amp;gt;&amp;gt;" style="edgeStyle=none;html=1;endArrow=open;verticalAlign=bottom;dashed=1;labelBackgroundColor=none;exitX=0;exitY=0.5;exitDx=0;exitDy=0;entryX=1;entryY=0;entryDx=0;entryDy=0;" edge="1" parent="1" source="y-TyGeWh9Q0BCXoDB0KB-114" target="y-TyGeWh9Q0BCXoDB0KB-8">
          <mxGeometry width="160" relative="1" as="geometry">
            <mxPoint x="680" y="1730" as="sourcePoint" />
            <mxPoint x="840" y="1730" as="targetPoint" />
          </mxGeometry>
        </mxCell>
        <mxCell id="ejGbgnozjiQMNGh3EYnC-93" value="" style="group" vertex="1" connectable="0" parent="1">
          <mxGeometry x="210" y="2310" width="830" height="410" as="geometry" />
        </mxCell>
        <mxCell id="ejGbgnozjiQMNGh3EYnC-94" value="" style="shape=folder;fontStyle=1;spacingTop=10;tabWidth=142;tabHeight=22;tabPosition=left;html=1;verticalAlign=top;align=left;strokeColor=#B9E0A5;strokeWidth=3;" vertex="1" parent="ejGbgnozjiQMNGh3EYnC-93">
          <mxGeometry width="830" height="410" as="geometry" />
        </mxCell>
        <mxCell id="ejGbgnozjiQMNGh3EYnC-95" value="4 - Utils" style="text;html=1;strokeColor=none;fillColor=none;align=left;verticalAlign=middle;whiteSpace=wrap;rounded=0;fontSize=14;" vertex="1" parent="ejGbgnozjiQMNGh3EYnC-93">
          <mxGeometry x="16.6" width="123.4" height="20" as="geometry" />
        </mxCell>
        <mxCell id="ejGbgnozjiQMNGh3EYnC-97" value="4.1 - Change Account&lt;br&gt;Settings" style="ellipse;whiteSpace=wrap;html=1;fillColor=#fff2cc;strokeColor=#d6b656;" vertex="1" parent="ejGbgnozjiQMNGh3EYnC-93">
          <mxGeometry x="145" y="40" width="140" height="49" as="geometry" />
        </mxCell>
        <mxCell id="ejGbgnozjiQMNGh3EYnC-99" value="Add Email" style="ellipse;whiteSpace=wrap;html=1;" vertex="1" parent="ejGbgnozjiQMNGh3EYnC-93">
          <mxGeometry x="239" y="99" width="140" height="50" as="geometry" />
        </mxCell>
        <mxCell id="ejGbgnozjiQMNGh3EYnC-100" value="Add Mobile Number" style="ellipse;whiteSpace=wrap;html=1;" vertex="1" parent="ejGbgnozjiQMNGh3EYnC-93">
          <mxGeometry x="239" y="151" width="140" height="50" as="geometry" />
        </mxCell>
        <mxCell id="ejGbgnozjiQMNGh3EYnC-101" value="Add Social Account" style="ellipse;whiteSpace=wrap;html=1;" vertex="1" parent="ejGbgnozjiQMNGh3EYnC-93">
          <mxGeometry x="239" y="203" width="140" height="50" as="geometry" />
        </mxCell>
        <mxCell id="ejGbgnozjiQMNGh3EYnC-102" value="Change preferable&lt;br&gt;channel of contact" style="ellipse;whiteSpace=wrap;html=1;" vertex="1" parent="ejGbgnozjiQMNGh3EYnC-93">
          <mxGeometry x="50" y="151" width="140" height="50" as="geometry" />
        </mxCell>
        <mxCell id="ejGbgnozjiQMNGh3EYnC-103" value="Change language" style="ellipse;whiteSpace=wrap;html=1;" vertex="1" parent="ejGbgnozjiQMNGh3EYnC-93">
          <mxGeometry x="50" y="204" width="140" height="50" as="geometry" />
        </mxCell>
        <mxCell id="ejGbgnozjiQMNGh3EYnC-104" value="Browse user&lt;br&gt;account data" style="ellipse;whiteSpace=wrap;html=1;" vertex="1" parent="ejGbgnozjiQMNGh3EYnC-93">
          <mxGeometry x="55" y="99" width="140" height="50" as="geometry" />
        </mxCell>
        <mxCell id="ejGbgnozjiQMNGh3EYnC-105" value="4.2 - Browse FAQ" style="ellipse;whiteSpace=wrap;html=1;fillColor=#fff2cc;strokeColor=#d6b656;" vertex="1" parent="ejGbgnozjiQMNGh3EYnC-93">
          <mxGeometry x="145" y="300" width="140" height="49" as="geometry" />
        </mxCell>
        <mxCell id="ejGbgnozjiQMNGh3EYnC-106" value="&amp;lt;&amp;lt;include&amp;gt;&amp;gt;" style="edgeStyle=none;html=1;endArrow=open;verticalAlign=bottom;dashed=1;labelBackgroundColor=none;exitX=1;exitY=0.5;exitDx=0;exitDy=0;entryX=0.5;entryY=1;entryDx=0;entryDy=0;" edge="1" parent="ejGbgnozjiQMNGh3EYnC-93" source="ejGbgnozjiQMNGh3EYnC-104" target="ejGbgnozjiQMNGh3EYnC-97">
          <mxGeometry width="160" relative="1" as="geometry">
            <mxPoint x="730" y="30" as="sourcePoint" />
            <mxPoint x="890" y="30" as="targetPoint" />
          </mxGeometry>
        </mxCell>
        <mxCell id="ejGbgnozjiQMNGh3EYnC-111" value="&amp;lt;&amp;lt;include&amp;gt;&amp;gt;" style="edgeStyle=none;html=1;endArrow=open;verticalAlign=bottom;dashed=1;labelBackgroundColor=none;exitX=1;exitY=0.5;exitDx=0;exitDy=0;entryX=0.5;entryY=1;entryDx=0;entryDy=0;" edge="1" parent="ejGbgnozjiQMNGh3EYnC-93" source="ejGbgnozjiQMNGh3EYnC-103" target="ejGbgnozjiQMNGh3EYnC-97">
          <mxGeometry width="160" relative="1" as="geometry">
            <mxPoint x="730" y="30" as="sourcePoint" />
            <mxPoint x="890" y="30" as="targetPoint" />
          </mxGeometry>
        </mxCell>
        <mxCell id="ejGbgnozjiQMNGh3EYnC-110" value="&amp;lt;&amp;lt;include&amp;gt;&amp;gt;" style="edgeStyle=none;html=1;endArrow=open;verticalAlign=bottom;dashed=1;labelBackgroundColor=none;exitX=1;exitY=0.5;exitDx=0;exitDy=0;entryX=0.5;entryY=1;entryDx=0;entryDy=0;" edge="1" parent="ejGbgnozjiQMNGh3EYnC-93" source="ejGbgnozjiQMNGh3EYnC-102" target="ejGbgnozjiQMNGh3EYnC-97">
          <mxGeometry width="160" relative="1" as="geometry">
            <mxPoint x="730" y="30" as="sourcePoint" />
            <mxPoint x="890" y="30" as="targetPoint" />
          </mxGeometry>
        </mxCell>
        <mxCell id="ejGbgnozjiQMNGh3EYnC-109" value="&amp;lt;&amp;lt;include&amp;gt;&amp;gt;" style="edgeStyle=none;html=1;endArrow=open;verticalAlign=bottom;dashed=1;labelBackgroundColor=none;exitX=0;exitY=0.5;exitDx=0;exitDy=0;entryX=0.5;entryY=1;entryDx=0;entryDy=0;" edge="1" parent="ejGbgnozjiQMNGh3EYnC-93" source="ejGbgnozjiQMNGh3EYnC-101" target="ejGbgnozjiQMNGh3EYnC-97">
          <mxGeometry width="160" relative="1" as="geometry">
            <mxPoint x="730" y="30" as="sourcePoint" />
            <mxPoint x="890" y="30" as="targetPoint" />
          </mxGeometry>
        </mxCell>
        <mxCell id="ejGbgnozjiQMNGh3EYnC-108" value="&amp;lt;&amp;lt;include&amp;gt;&amp;gt;" style="edgeStyle=none;html=1;endArrow=open;verticalAlign=bottom;dashed=1;labelBackgroundColor=none;exitX=0;exitY=0.5;exitDx=0;exitDy=0;entryX=0.5;entryY=1;entryDx=0;entryDy=0;" edge="1" parent="ejGbgnozjiQMNGh3EYnC-93" source="ejGbgnozjiQMNGh3EYnC-100" target="ejGbgnozjiQMNGh3EYnC-97">
          <mxGeometry width="160" relative="1" as="geometry">
            <mxPoint x="730" y="30" as="sourcePoint" />
            <mxPoint x="890" y="30" as="targetPoint" />
          </mxGeometry>
        </mxCell>
        <mxCell id="ejGbgnozjiQMNGh3EYnC-107" value="&amp;lt;&amp;lt;include&amp;gt;&amp;gt;" style="edgeStyle=none;html=1;endArrow=open;verticalAlign=bottom;dashed=1;labelBackgroundColor=none;exitX=0;exitY=0.5;exitDx=0;exitDy=0;entryX=0.5;entryY=1;entryDx=0;entryDy=0;" edge="1" parent="ejGbgnozjiQMNGh3EYnC-93" source="ejGbgnozjiQMNGh3EYnC-99" target="ejGbgnozjiQMNGh3EYnC-97">
          <mxGeometry width="160" relative="1" as="geometry">
            <mxPoint x="730" y="30" as="sourcePoint" />
            <mxPoint x="890" y="30" as="targetPoint" />
          </mxGeometry>
        </mxCell>
        <mxCell id="ejGbgnozjiQMNGh3EYnC-134" value="4.3 - Collect Errors Data" style="ellipse;whiteSpace=wrap;html=1;" vertex="1" parent="ejGbgnozjiQMNGh3EYnC-93">
          <mxGeometry x="617" y="340" width="140" height="50" as="geometry" />
        </mxCell>
        <mxCell id="ejGbgnozjiQMNGh3EYnC-112" value="" style="edgeStyle=orthogonalEdgeStyle;html=1;endArrow=none;verticalAlign=bottom;fontSize=11;entryX=0.5;entryY=0.5;entryDx=0;entryDy=0;entryPerimeter=0;curved=1;fillColor=#a20025;strokeColor=#6F0000;exitX=1;exitY=0.5;exitDx=0;exitDy=0;" edge="1" parent="1" source="ejGbgnozjiQMNGh3EYnC-99" target="y-TyGeWh9Q0BCXoDB0KB-31">
          <mxGeometry width="160" relative="1" as="geometry">
            <mxPoint x="1130" y="1301.2316022600446" as="sourcePoint" />
            <mxPoint x="1173" y="300" as="targetPoint" />
            <Array as="points">
              <mxPoint x="589" y="2420" />
              <mxPoint x="1120" y="2420" />
              <mxPoint x="1120" y="290" />
            </Array>
          </mxGeometry>
        </mxCell>
        <mxCell id="ejGbgnozjiQMNGh3EYnC-113" value="" style="edgeStyle=orthogonalEdgeStyle;html=1;endArrow=none;verticalAlign=bottom;fontSize=11;entryX=0.5;entryY=0.5;entryDx=0;entryDy=0;entryPerimeter=0;curved=1;fillColor=#a20025;strokeColor=#6F0000;exitX=1;exitY=0.5;exitDx=0;exitDy=0;" edge="1" parent="1" source="ejGbgnozjiQMNGh3EYnC-100" target="y-TyGeWh9Q0BCXoDB0KB-31">
          <mxGeometry width="160" relative="1" as="geometry">
            <mxPoint x="1200" y="580" as="sourcePoint" />
            <mxPoint x="1183" y="310" as="targetPoint" />
            <Array as="points">
              <mxPoint x="589" y="2470" />
              <mxPoint x="1170" y="2470" />
              <mxPoint x="1170" y="290" />
            </Array>
          </mxGeometry>
        </mxCell>
        <mxCell id="ejGbgnozjiQMNGh3EYnC-114" value="" style="edgeStyle=orthogonalEdgeStyle;html=1;endArrow=none;verticalAlign=bottom;fontSize=11;entryX=0.5;entryY=0.5;entryDx=0;entryDy=0;entryPerimeter=0;curved=1;fillColor=#a20025;strokeColor=#6F0000;exitX=1;exitY=0.5;exitDx=0;exitDy=0;" edge="1" parent="1" source="ejGbgnozjiQMNGh3EYnC-101" target="y-TyGeWh9Q0BCXoDB0KB-31">
          <mxGeometry width="160" relative="1" as="geometry">
            <mxPoint x="1300" y="590" as="sourcePoint" />
            <mxPoint x="1193" y="320" as="targetPoint" />
            <Array as="points">
              <mxPoint x="589" y="2520" />
              <mxPoint x="1210" y="2520" />
              <mxPoint x="1210" y="290" />
            </Array>
          </mxGeometry>
        </mxCell>
        <mxCell id="ejGbgnozjiQMNGh3EYnC-115" value="" style="edgeStyle=orthogonalEdgeStyle;html=1;endArrow=none;verticalAlign=bottom;fontSize=11;entryX=0.5;entryY=0.5;entryDx=0;entryDy=0;entryPerimeter=0;curved=1;fillColor=#a20025;strokeColor=#6F0000;exitX=1;exitY=0.5;exitDx=0;exitDy=0;" edge="1" parent="1" source="ejGbgnozjiQMNGh3EYnC-105" target="y-TyGeWh9Q0BCXoDB0KB-31">
          <mxGeometry width="160" relative="1" as="geometry">
            <mxPoint x="599" y="2548" as="sourcePoint" />
            <mxPoint x="1173" y="300" as="targetPoint" />
            <Array as="points">
              <mxPoint x="495" y="2620" />
              <mxPoint x="1230" y="2620" />
              <mxPoint x="1230" y="290" />
            </Array>
          </mxGeometry>
        </mxCell>
        <mxCell id="ejGbgnozjiQMNGh3EYnC-116" value="" style="edgeStyle=orthogonalEdgeStyle;html=1;endArrow=none;verticalAlign=bottom;entryX=0;entryY=0.5;entryDx=0;entryDy=0;exitX=0.5;exitY=0.5;exitDx=0;exitDy=0;exitPerimeter=0;curved=1;fillColor=#008a00;strokeColor=#005700;" edge="1" parent="1" source="y-TyGeWh9Q0BCXoDB0KB-1" target="y-TyGeWh9Q0BCXoDB0KB-110">
          <mxGeometry width="160" relative="1" as="geometry">
            <mxPoint x="50" y="551" as="sourcePoint" />
            <mxPoint x="400.00000000000136" y="1339.0500000000002" as="targetPoint" />
            <Array as="points">
              <mxPoint x="30" y="541" />
              <mxPoint x="30" y="1635" />
            </Array>
          </mxGeometry>
        </mxCell>
        <mxCell id="ejGbgnozjiQMNGh3EYnC-117" value="" style="edgeStyle=orthogonalEdgeStyle;html=1;endArrow=none;verticalAlign=bottom;entryX=0;entryY=0.5;entryDx=0;entryDy=0;exitX=0.5;exitY=0.5;exitDx=0;exitDy=0;exitPerimeter=0;curved=1;fillColor=#008a00;strokeColor=#005700;" edge="1" parent="1" source="y-TyGeWh9Q0BCXoDB0KB-1" target="y-TyGeWh9Q0BCXoDB0KB-113">
          <mxGeometry width="160" relative="1" as="geometry">
            <mxPoint x="60" y="561" as="sourcePoint" />
            <mxPoint x="410.00000000000136" y="1349.0500000000002" as="targetPoint" />
            <Array as="points">
              <mxPoint x="30" y="541" />
              <mxPoint x="30" y="1753" />
            </Array>
          </mxGeometry>
        </mxCell>
        <mxCell id="ejGbgnozjiQMNGh3EYnC-118" value="" style="edgeStyle=orthogonalEdgeStyle;html=1;endArrow=none;verticalAlign=bottom;entryX=0;entryY=0.5;entryDx=0;entryDy=0;exitX=0.5;exitY=0.5;exitDx=0;exitDy=0;exitPerimeter=0;curved=1;fillColor=#008a00;strokeColor=#005700;" edge="1" parent="1" source="y-TyGeWh9Q0BCXoDB0KB-1" target="y-TyGeWh9Q0BCXoDB0KB-111">
          <mxGeometry width="160" relative="1" as="geometry">
            <mxPoint x="70" y="571" as="sourcePoint" />
            <mxPoint x="420.00000000000136" y="1359.0500000000002" as="targetPoint" />
            <Array as="points">
              <mxPoint x="30" y="541" />
              <mxPoint x="30" y="1840" />
              <mxPoint x="630" y="1840" />
            </Array>
          </mxGeometry>
        </mxCell>
        <mxCell id="ejGbgnozjiQMNGh3EYnC-119" value="" style="edgeStyle=orthogonalEdgeStyle;html=1;endArrow=none;verticalAlign=bottom;entryX=0;entryY=0.5;entryDx=0;entryDy=0;exitX=0.5;exitY=0.5;exitDx=0;exitDy=0;exitPerimeter=0;curved=1;fillColor=#008a00;strokeColor=#005700;" edge="1" parent="1" source="y-TyGeWh9Q0BCXoDB0KB-1" target="y-TyGeWh9Q0BCXoDB0KB-8">
          <mxGeometry width="160" relative="1" as="geometry">
            <mxPoint x="80" y="581" as="sourcePoint" />
            <mxPoint x="430.00000000000136" y="1369.0500000000002" as="targetPoint" />
            <Array as="points">
              <mxPoint x="30" y="541" />
              <mxPoint x="30" y="1906" />
            </Array>
          </mxGeometry>
        </mxCell>
        <mxCell id="ejGbgnozjiQMNGh3EYnC-120" value="" style="edgeStyle=orthogonalEdgeStyle;html=1;endArrow=none;verticalAlign=bottom;entryX=0;entryY=0.5;entryDx=0;entryDy=0;exitX=0.5;exitY=0.5;exitDx=0;exitDy=0;exitPerimeter=0;curved=1;fillColor=#008a00;strokeColor=#005700;" edge="1" parent="1" source="y-TyGeWh9Q0BCXoDB0KB-1" target="ejGbgnozjiQMNGh3EYnC-97">
          <mxGeometry width="160" relative="1" as="geometry">
            <mxPoint x="90" y="591" as="sourcePoint" />
            <mxPoint x="440.00000000000136" y="1379.0500000000002" as="targetPoint" />
            <Array as="points">
              <mxPoint x="30" y="541" />
              <mxPoint x="30" y="2375" />
            </Array>
          </mxGeometry>
        </mxCell>
        <mxCell id="ejGbgnozjiQMNGh3EYnC-121" value="" style="edgeStyle=orthogonalEdgeStyle;html=1;endArrow=none;verticalAlign=bottom;entryX=0;entryY=0.5;entryDx=0;entryDy=0;exitX=0.5;exitY=0.5;exitDx=0;exitDy=0;exitPerimeter=0;curved=1;fillColor=#008a00;strokeColor=#005700;" edge="1" parent="1" source="y-TyGeWh9Q0BCXoDB0KB-1" target="ejGbgnozjiQMNGh3EYnC-105">
          <mxGeometry width="160" relative="1" as="geometry">
            <mxPoint x="100" y="601" as="sourcePoint" />
            <mxPoint x="450.00000000000136" y="1389.0500000000002" as="targetPoint" />
            <Array as="points">
              <mxPoint x="30" y="541" />
              <mxPoint x="30" y="2635" />
            </Array>
          </mxGeometry>
        </mxCell>
        <mxCell id="ejGbgnozjiQMNGh3EYnC-122" value="&lt;font color=&quot;#000000&quot;&gt;&amp;lt;&amp;lt;service&amp;gt;&amp;gt;&lt;br&gt;Backend&lt;/font&gt;" style="shape=umlActor;html=1;verticalLabelPosition=bottom;verticalAlign=top;align=center;fillColor=#0050ef;strokeColor=#001DBC;fontColor=#ffffff;" vertex="1" parent="1">
          <mxGeometry x="1340" y="860" width="30" height="60" as="geometry" />
        </mxCell>
        <mxCell id="ejGbgnozjiQMNGh3EYnC-123" value="" style="edgeStyle=none;html=1;endArrow=none;verticalAlign=bottom;entryX=0.5;entryY=0.5;entryDx=0;entryDy=0;entryPerimeter=0;fillColor=#0050ef;strokeColor=#001DBC;exitX=1;exitY=0.5;exitDx=0;exitDy=0;" edge="1" parent="1" source="ejGbgnozjiQMNGh3EYnC-75" target="ejGbgnozjiQMNGh3EYnC-122">
          <mxGeometry width="160" relative="1" as="geometry">
            <mxPoint x="1130" y="830" as="sourcePoint" />
            <mxPoint x="1290" y="830" as="targetPoint" />
          </mxGeometry>
        </mxCell>
        <mxCell id="ejGbgnozjiQMNGh3EYnC-124" value="" style="edgeStyle=orthogonalEdgeStyle;html=1;endArrow=none;verticalAlign=bottom;entryX=0.5;entryY=0.5;entryDx=0;entryDy=0;entryPerimeter=0;fillColor=#0050ef;strokeColor=#001DBC;exitX=1;exitY=0.5;exitDx=0;exitDy=0;curved=1;" edge="1" parent="1" source="y-TyGeWh9Q0BCXoDB0KB-7" target="ejGbgnozjiQMNGh3EYnC-122">
          <mxGeometry width="160" relative="1" as="geometry">
            <mxPoint x="1000" y="645" as="sourcePoint" />
            <mxPoint x="1365" y="900" as="targetPoint" />
          </mxGeometry>
        </mxCell>
        <mxCell id="ejGbgnozjiQMNGh3EYnC-127" value="" style="edgeStyle=none;html=1;endArrow=none;verticalAlign=bottom;entryX=0.5;entryY=0.5;entryDx=0;entryDy=0;entryPerimeter=0;fillColor=#0050ef;strokeColor=#001DBC;exitX=1;exitY=0.5;exitDx=0;exitDy=0;" edge="1" parent="1" source="y-TyGeWh9Q0BCXoDB0KB-103" target="ejGbgnozjiQMNGh3EYnC-122">
          <mxGeometry width="160" relative="1" as="geometry">
            <mxPoint x="1030" y="675" as="sourcePoint" />
            <mxPoint x="1395" y="930" as="targetPoint" />
          </mxGeometry>
        </mxCell>
        <mxCell id="ejGbgnozjiQMNGh3EYnC-129" value="" style="edgeStyle=orthogonalEdgeStyle;html=1;endArrow=none;verticalAlign=bottom;entryX=0.5;entryY=0.5;entryDx=0;entryDy=0;entryPerimeter=0;fillColor=#0050ef;strokeColor=#001DBC;exitX=1;exitY=0.5;exitDx=0;exitDy=0;curved=1;" edge="1" parent="1" source="y-TyGeWh9Q0BCXoDB0KB-9" target="ejGbgnozjiQMNGh3EYnC-122">
          <mxGeometry width="160" relative="1" as="geometry">
            <mxPoint x="590" y="817" as="sourcePoint" />
            <mxPoint x="1365" y="900" as="targetPoint" />
            <Array as="points">
              <mxPoint x="550" y="1329" />
              <mxPoint x="550" y="1450" />
              <mxPoint x="1355" y="1450" />
            </Array>
          </mxGeometry>
        </mxCell>
        <mxCell id="ejGbgnozjiQMNGh3EYnC-130" value="" style="edgeStyle=orthogonalEdgeStyle;html=1;endArrow=none;verticalAlign=bottom;entryX=0.5;entryY=0.5;entryDx=0;entryDy=0;entryPerimeter=0;fillColor=#0050ef;strokeColor=#001DBC;exitX=1;exitY=0.5;exitDx=0;exitDy=0;curved=1;" edge="1" parent="1" source="ejGbgnozjiQMNGh3EYnC-11" target="ejGbgnozjiQMNGh3EYnC-122">
          <mxGeometry width="160" relative="1" as="geometry">
            <mxPoint x="600" y="827" as="sourcePoint" />
            <mxPoint x="1375" y="910" as="targetPoint" />
            <Array as="points">
              <mxPoint x="770" y="1480" />
              <mxPoint x="1355" y="1480" />
            </Array>
          </mxGeometry>
        </mxCell>
        <mxCell id="ejGbgnozjiQMNGh3EYnC-131" value="" style="edgeStyle=orthogonalEdgeStyle;html=1;endArrow=none;verticalAlign=bottom;fillColor=#0050ef;strokeColor=#001DBC;exitX=0.5;exitY=0;exitDx=0;exitDy=0;curved=1;entryX=0.5;entryY=0.5;entryDx=0;entryDy=0;entryPerimeter=0;" edge="1" parent="1" source="y-TyGeWh9Q0BCXoDB0KB-123" target="ejGbgnozjiQMNGh3EYnC-122">
          <mxGeometry width="160" relative="1" as="geometry">
            <mxPoint x="780" y="1485" as="sourcePoint" />
            <mxPoint x="1310" y="920" as="targetPoint" />
            <Array as="points">
              <mxPoint x="600" y="1150" />
              <mxPoint x="1355" y="1150" />
            </Array>
          </mxGeometry>
        </mxCell>
        <mxCell id="ejGbgnozjiQMNGh3EYnC-132" value="" style="edgeStyle=orthogonalEdgeStyle;html=1;endArrow=none;verticalAlign=bottom;fillColor=#0050ef;strokeColor=#001DBC;exitX=1;exitY=0;exitDx=0;exitDy=0;curved=1;entryX=0.5;entryY=0.5;entryDx=0;entryDy=0;entryPerimeter=0;" edge="1" parent="1" source="y-TyGeWh9Q0BCXoDB0KB-110" target="ejGbgnozjiQMNGh3EYnC-122">
          <mxGeometry width="160" relative="1" as="geometry">
            <mxPoint x="610" y="1224.5500000000002" as="sourcePoint" />
            <mxPoint x="1365" y="900" as="targetPoint" />
            <Array as="points">
              <mxPoint x="469" y="1560" />
              <mxPoint x="1350" y="1560" />
              <mxPoint x="1350" y="890" />
            </Array>
          </mxGeometry>
        </mxCell>
        <mxCell id="ejGbgnozjiQMNGh3EYnC-133" value="" style="edgeStyle=orthogonalEdgeStyle;html=1;endArrow=none;verticalAlign=bottom;fillColor=#0050ef;strokeColor=#001DBC;exitX=1;exitY=0;exitDx=0;exitDy=0;curved=1;entryX=0.5;entryY=0.5;entryDx=0;entryDy=0;entryPerimeter=0;" edge="1" parent="1" source="y-TyGeWh9Q0BCXoDB0KB-113" target="ejGbgnozjiQMNGh3EYnC-122">
          <mxGeometry width="160" relative="1" as="geometry">
            <mxPoint x="620" y="1234.5500000000002" as="sourcePoint" />
            <mxPoint x="1375" y="900" as="targetPoint" />
            <Array as="points">
              <mxPoint x="660" y="1720" />
              <mxPoint x="1370" y="1720" />
              <mxPoint x="1370" y="890" />
            </Array>
          </mxGeometry>
        </mxCell>
        <mxCell id="ejGbgnozjiQMNGh3EYnC-135" value="&lt;font color=&quot;#000000&quot;&gt;&amp;lt;&amp;lt;service&amp;gt;&amp;gt;&lt;br&gt;Google Analytics&lt;/font&gt;" style="shape=umlActor;html=1;verticalLabelPosition=bottom;verticalAlign=top;align=center;fillColor=#f0a30a;strokeColor=#BD7000;fontColor=#ffffff;" vertex="1" parent="1">
          <mxGeometry x="1480" y="1169" width="30" height="60" as="geometry" />
        </mxCell>
        <mxCell id="ejGbgnozjiQMNGh3EYnC-136" value="" style="edgeStyle=none;html=1;endArrow=none;verticalAlign=bottom;entryX=0.5;entryY=0.5;entryDx=0;entryDy=0;entryPerimeter=0;exitX=1;exitY=0.5;exitDx=0;exitDy=0;fillColor=#f0a30a;strokeColor=#BD7000;" edge="1" parent="1" source="y-TyGeWh9Q0BCXoDB0KB-104" target="ejGbgnozjiQMNGh3EYnC-135">
          <mxGeometry width="160" relative="1" as="geometry">
            <mxPoint x="1060" y="1230" as="sourcePoint" />
            <mxPoint x="1220" y="1230" as="targetPoint" />
          </mxGeometry>
        </mxCell>
        <mxCell id="ejGbgnozjiQMNGh3EYnC-137" value="&lt;font color=&quot;#000000&quot;&gt;&amp;lt;&amp;lt;service&amp;gt;&amp;gt;&lt;br&gt;Akamai Media&lt;br&gt;Analytics&lt;br&gt;&lt;/font&gt;" style="shape=umlActor;html=1;verticalLabelPosition=bottom;verticalAlign=top;align=center;fillColor=#e3c800;strokeColor=#B09500;fontColor=#ffffff;" vertex="1" parent="1">
          <mxGeometry x="1490" y="1590" width="30" height="60" as="geometry" />
        </mxCell>
        <mxCell id="ejGbgnozjiQMNGh3EYnC-138" value="" style="edgeStyle=none;html=1;endArrow=none;verticalAlign=bottom;entryX=0.5;entryY=0.5;entryDx=0;entryDy=0;entryPerimeter=0;exitX=1;exitY=0.5;exitDx=0;exitDy=0;fillColor=#e3c800;strokeColor=#B09500;" edge="1" parent="1" source="y-TyGeWh9Q0BCXoDB0KB-112" target="ejGbgnozjiQMNGh3EYnC-137">
          <mxGeometry width="160" relative="1" as="geometry">
            <mxPoint x="1060" y="1240" as="sourcePoint" />
            <mxPoint x="1220" y="1240" as="targetPoint" />
          </mxGeometry>
        </mxCell>
        <mxCell id="ejGbgnozjiQMNGh3EYnC-139" value="Customer&lt;br&gt;Marketing&lt;br&gt;Analyst" style="shape=umlActor;html=1;verticalLabelPosition=bottom;verticalAlign=top;align=center;" vertex="1" parent="1">
          <mxGeometry x="1570" y="1380" width="30" height="60" as="geometry" />
        </mxCell>
        <mxCell id="ejGbgnozjiQMNGh3EYnC-140" value="" style="edgeStyle=none;html=1;endArrow=none;verticalAlign=bottom;entryX=0.5;entryY=0.5;entryDx=0;entryDy=0;entryPerimeter=0;exitX=0.5;exitY=0.5;exitDx=0;exitDy=0;exitPerimeter=0;" edge="1" parent="1" source="ejGbgnozjiQMNGh3EYnC-135" target="ejGbgnozjiQMNGh3EYnC-139">
          <mxGeometry width="160" relative="1" as="geometry">
            <mxPoint x="1060" y="1520" as="sourcePoint" />
            <mxPoint x="1220" y="1520" as="targetPoint" />
          </mxGeometry>
        </mxCell>
        <mxCell id="ejGbgnozjiQMNGh3EYnC-141" value="" style="edgeStyle=none;html=1;endArrow=none;verticalAlign=bottom;entryX=0.5;entryY=0.5;entryDx=0;entryDy=0;entryPerimeter=0;exitX=0.5;exitY=0.5;exitDx=0;exitDy=0;exitPerimeter=0;" edge="1" parent="1" source="ejGbgnozjiQMNGh3EYnC-137" target="ejGbgnozjiQMNGh3EYnC-139">
          <mxGeometry width="160" relative="1" as="geometry">
            <mxPoint x="1060" y="1520" as="sourcePoint" />
            <mxPoint x="1220" y="1520" as="targetPoint" />
          </mxGeometry>
        </mxCell>
        <mxCell id="ejGbgnozjiQMNGh3EYnC-142" value="&amp;lt;&amp;lt;service&amp;gt;&amp;gt;&lt;br&gt;Splunk" style="shape=umlActor;html=1;verticalLabelPosition=bottom;verticalAlign=top;align=center;fillColor=#b1ddf0;strokeColor=#10739e;" vertex="1" parent="1">
          <mxGeometry x="1226" y="2640" width="30" height="60" as="geometry" />
        </mxCell>
        <mxCell id="ejGbgnozjiQMNGh3EYnC-143" value="" style="edgeStyle=none;html=1;endArrow=none;verticalAlign=bottom;entryX=0.5;entryY=0.5;entryDx=0;entryDy=0;entryPerimeter=0;exitX=1;exitY=0.5;exitDx=0;exitDy=0;fillColor=#b1ddf0;strokeColor=#10739e;" edge="1" parent="1" source="ejGbgnozjiQMNGh3EYnC-134" target="ejGbgnozjiQMNGh3EYnC-142">
          <mxGeometry width="160" relative="1" as="geometry">
            <mxPoint x="810" y="2730" as="sourcePoint" />
            <mxPoint x="970" y="2730" as="targetPoint" />
          </mxGeometry>
        </mxCell>
        <mxCell id="ejGbgnozjiQMNGh3EYnC-144" value="App Support&lt;br&gt;Specialist" style="shape=umlActor;html=1;verticalLabelPosition=bottom;verticalAlign=top;align=center;" vertex="1" parent="1">
          <mxGeometry x="1480" y="2640" width="30" height="60" as="geometry" />
        </mxCell>
        <mxCell id="ejGbgnozjiQMNGh3EYnC-145" value="" style="edgeStyle=none;html=1;endArrow=none;verticalAlign=bottom;entryX=0.5;entryY=0.5;entryDx=0;entryDy=0;entryPerimeter=0;exitX=0.5;exitY=0.5;exitDx=0;exitDy=0;exitPerimeter=0;" edge="1" parent="1" source="ejGbgnozjiQMNGh3EYnC-142" target="ejGbgnozjiQMNGh3EYnC-144">
          <mxGeometry width="160" relative="1" as="geometry">
            <mxPoint x="810" y="2440" as="sourcePoint" />
            <mxPoint x="970" y="2440" as="targetPoint" />
          </mxGeometry>
        </mxCell>
      </root>
    </mxGraphModel>
  </diagram>
</mxfile>
